<?xml version="1.0" standalone="no"?>
<!DOCTYPE svg PUBLIC "-//W3C//DTD SVG 20010904//EN"
 "http://www.w3.org/TR/2001/REC-SVG-20010904/DTD/svg10.dtd">
<svg version="1.0" xmlns="http://www.w3.org/2000/svg"
 width="100%" height="100%" viewBox="0 100 226 226" preserveAspectRatio="xMidYMid meet">
<g transform="translate(0.000000,378.000000) scale(0.100000,-0.100000)"
fill="#000000" stroke="none">
<path d="M1455 3745 c-27 -14 -58 -34 -68 -46 -17 -21 -18 -21 -45 -3 -45 30
-116 25 -194 -14 -80 -39 -122 -86 -173 -194 -20 -42 -58 -101 -83 -130 -26
-30 -58 -82 -72 -116 -22 -56 -40 -79 -40 -52 0 5 -15 16 -32 25 -18 8 -40 19
-48 23 -57 34 -123 61 -145 60 -28 -3 -31 -8 -13 -26 9 -9 9 -12 -2 -13 -8 -1
-19 -1 -23 0 -5 1 -18 -10 -29 -24 -11 -14 -25 -24 -32 -22 -15 6 -68 -22 -61
-33 3 -4 2 -16 -1 -25 -6 -13 -9 -14 -16 -3 -7 9 -8 8 -4 -6 4 -10 2 -24 -3
-30 -12 -14 4 -45 16 -32 4 5 2 11 -5 13 -9 4 -7 12 7 31 10 15 22 37 25 50 5
13 15 22 27 22 11 0 29 5 40 10 13 7 19 7 19 0 0 -5 5 -10 11 -10 16 0 59 36
52 44 -3 3 -2 6 4 6 6 0 16 -7 23 -15 10 -12 10 -15 -2 -15 -8 0 -31 -16 -52
-35 -23 -21 -49 -35 -64 -35 -13 0 -31 -8 -38 -17 -19 -26 -17 -32 10 -27 14
2 28 0 31 -6 10 -16 43 -12 54 8 13 22 14 1 1 -32 -7 -19 -17 -26 -35 -26 -14
0 -25 5 -25 12 0 6 -3 9 -6 5 -3 -3 -3 -14 0 -25 5 -14 13 -18 26 -15 28 8 26
-22 -4 -52 -22 -22 -20 -45 2 -31 5 3 20 -6 35 -18 22 -19 24 -25 12 -29 -21
-9 -8 -34 28 -52 38 -19 104 -19 137 0 14 8 36 14 50 14 l25 -1 -25 -7 -25 -8
30 -6 c17 -3 55 -5 87 -4 45 2 54 -1 46 -11 -6 -7 -9 -13 -7 -15 14 -8 76 -37
84 -39 6 -2 10 1 10 7 0 5 -4 10 -10 10 -26 1 -55 18 -55 31 0 13 2 13 16 0 8
-9 26 -16 39 -16 13 0 28 -7 33 -17 14 -24 111 -30 144 -9 13 9 27 13 31 10 3
-3 16 14 28 38 26 50 25 46 41 116 11 49 11 56 -12 98 -14 25 -34 53 -45 64
-23 21 -160 144 -196 176 -13 11 -36 35 -51 53 -26 31 -26 33 -9 50 10 10 37
57 60 105 24 49 60 105 83 128 36 36 121 84 158 88 39 5 101 -1 95 -10 -3 -5
-13 -7 -23 -4 -14 5 -15 4 -2 -5 13 -10 13 -12 0 -21 -12 -8 -11 -10 8 -10 13
0 21 4 18 9 -3 5 1 11 9 15 18 7 18 -2 0 -34 -22 -38 -18 -46 8 -14 38 49 100
103 129 113 27 10 28 9 22 -17 -4 -15 -18 -54 -31 -87 -26 -66 -25 -132 3
-156 8 -7 12 -19 9 -27 -4 -12 -1 -12 17 2 29 20 95 56 104 56 4 0 -1 -10 -12
-22 l-19 -23 22 19 c13 10 20 22 18 26 -7 12 46 23 57 12 9 -9 -89 -72 -111
-72 -6 0 -21 -16 -35 -36 -22 -32 -66 -73 -66 -60 0 3 11 16 25 30 26 26 32
46 15 46 -6 0 -14 -10 -19 -23 -6 -15 -18 -23 -36 -25 -16 -1 -35 -7 -44 -14
-13 -10 -14 -10 -3 2 15 18 16 38 1 23 -7 -7 -12 -20 -14 -30 -1 -10 -7 -30
-13 -46 -9 -20 -9 -46 1 -105 6 -42 11 -113 11 -157 -1 -68 0 -75 9 -45 5 19
7 67 4 107 -5 69 -4 71 16 68 38 -8 40 -22 21 -133 -3 -23 -9 -40 -12 -37 -3
3 -14 -14 -24 -37 -11 -23 -42 -64 -69 -90 -37 -35 -49 -53 -44 -67 4 -14 -4
-24 -32 -42 -21 -12 -42 -24 -48 -25 -50 -15 -116 -43 -100 -44 29 0 124 35
147 54 10 9 24 14 30 10 7 -4 8 -3 4 4 -5 8 2 12 21 12 16 0 62 16 102 35 80
39 98 40 54 5 -33 -26 -28 -25 51 14 38 20 78 31 115 33 40 2 50 1 36 -6 -19
-9 -19 -10 2 -10 14 -1 32 -15 48 -38 30 -44 34 -23 5 25 -11 18 -36 40 -54
47 -30 13 -40 13 -77 0 -23 -9 -48 -20 -56 -26 -8 -7 -13 -8 -13 -1 0 5 14 15
30 22 17 7 30 17 30 22 0 5 -4 7 -9 3 -5 -3 -12 4 -16 15 -7 22 -25 27 -25 8
0 -14 -44 -51 -103 -87 -81 -49 -163 -45 -116 6 13 12 31 23 41 23 10 0 18 7
18 16 0 9 5 12 13 8 6 -4 9 -4 5 1 -8 8 25 80 42 90 16 10 12 -23 -6 -51 -9
-13 -14 -27 -11 -30 9 -10 38 56 35 80 -1 13 5 31 15 40 18 18 24 41 8 32 -9
-6 -6 112 3 121 3 3 12 -2 21 -11 9 -9 21 -13 26 -10 6 4 5 11 -4 17 -7 7 -18
24 -25 40 -9 22 -9 27 2 27 8 0 17 -6 19 -12 3 -8 6 -7 6 4 1 9 -3 20 -9 23
-19 12 -10 22 15 17 35 -6 32 -52 -4 -63 -10 -4 -10 -7 3 -18 13 -11 16 -11
16 2 0 8 7 20 15 27 17 15 19 7 5 -21 -7 -13 -7 -19 0 -19 17 0 11 -39 -10
-60 -12 -12 -17 -26 -13 -36 4 -12 3 -15 -5 -10 -28 17 -9 -14 21 -34 27 -19
33 -29 32 -56 -1 -37 9 -33 18 7 4 16 0 34 -9 48 -13 18 -15 37 -9 99 10 118
30 201 54 226 12 12 21 27 21 32 0 5 9 27 20 49 36 70 20 104 -57 120 -17 3
-43 17 -58 31 -23 22 -25 29 -19 69 7 52 -1 95 -19 94 -6 0 -34 -11 -62 -24z
m62 -37 c-3 -7 -5 -2 -5 12 0 14 2 19 5 13 2 -7 2 -19 0 -25z m-11 -54 c-4
-14 -9 -24 -12 -21 -3 2 -2 17 2 31 3 15 9 25 11 22 3 -3 2 -17 -1 -32z m39
-84 l24 0 -29 -30 c-34 -35 -39 -37 -35 -12 1 9 -2 26 -7 36 -9 16 -7 18 7 13
9 -4 27 -7 40 -7z m66 -25 c0 -6 -9 -11 -20 -13 -11 -2 -25 -10 -31 -18 -7 -8
-18 -14 -24 -14 -6 1 5 14 24 30 34 29 52 34 51 15z m23 -98 c-2 -7 -19 -19
-37 -26 -37 -17 -114 -93 -119 -118 -2 -11 -11 -17 -21 -15 -9 2 -17 -2 -17
-8 0 -6 -5 -8 -12 -4 -8 5 -9 2 -4 -11 7 -18 6 -18 -14 0 -23 21 -25 37 -8 64
9 14 19 18 43 14 29 -5 35 0 68 46 22 30 45 51 56 51 10 0 24 6 31 14 13 17
41 10 34 -7z m-47 -59 c7 -9 7 -26 -1 -53 -11 -37 -15 -40 -45 -40 -45 0 -49
16 -12 54 17 18 31 36 31 41 0 14 16 12 27 -2z m-648 -75 c10 -22 8 -31 -13
-62 -25 -37 -46 -117 -46 -175 0 -74 82 -226 123 -226 11 0 17 -3 13 -7 -11
-11 -65 -12 -72 -2 -3 5 3 6 13 3 10 -3 -1 5 -24 17 -24 11 -41 24 -38 28 2 4
-8 23 -24 41 -16 20 -30 29 -34 23 -4 -6 2 -18 13 -28 11 -10 20 -25 20 -33 0
-12 -6 -10 -25 8 -27 26 -33 17 -10 -14 8 -11 15 -22 15 -26 0 -11 -45 -6 -57
6 -16 15 -17 34 -2 34 5 0 8 4 4 10 -3 5 -12 7 -19 4 -7 -3 -16 2 -19 10 -4 9
-2 16 4 16 5 0 2 11 -7 25 -9 14 -13 25 -10 25 4 0 4 5 0 12 -5 8 -10 7 -18
-4 -22 -29 -45 -29 -61 2 -15 29 -15 30 25 56 22 15 40 31 40 35 0 5 7 9 16 9
14 0 14 -3 4 -15 -13 -16 -9 -25 37 -74 13 -13 23 -30 23 -37 0 -8 5 -14 11
-14 6 0 8 7 5 16 -4 9 -11 36 -17 60 -10 38 -14 42 -29 34 -23 -12 -30 -13
-30 -1 0 5 11 12 24 15 21 5 26 14 32 64 7 60 30 115 71 169 27 36 45 34 62
-4z m531 -47 c0 -15 -14 -35 -21 -30 -15 9 -10 34 6 34 8 0 15 -2 15 -4z
m-820 -10 c0 -2 -3 -11 -6 -20 -8 -21 -27 -20 -40 2 -10 16 -8 18 17 20 16 1
29 0 29 -2z m750 -11 c11 -13 10 -14 -4 -9 -9 3 -16 10 -16 15 0 13 6 11 20
-6z m-860 -15 c0 -5 -5 -10 -11 -10 -5 0 -7 5 -4 10 3 6 8 10 11 10 2 0 4 -4
4 -10z m880 -20 c0 -5 -7 -10 -15 -10 -8 0 -15 5 -15 10 0 6 7 10 15 10 8 0
15 -4 15 -10z m-669 -32 c11 -20 11 -20 -15 -2 -28 21 -34 37 -11 28 9 -4 20
-15 26 -26z m-122 13 c9 -6 10 -11 2 -15 -6 -4 -11 -17 -11 -30 0 -13 -6 -23
-14 -23 -8 0 -14 9 -13 19 1 10 4 18 8 18 4 0 5 9 2 20 -6 21 3 25 26 11z m46
-21 c-3 -5 -10 -10 -16 -10 -5 0 -9 5 -9 10 0 6 7 10 16 10 8 0 12 -4 9 -10z
m-111 -17 c8 -20 -8 -40 -19 -23 -5 8 -12 6 -26 -6 -26 -24 -24 -6 3 23 26 27
34 29 42 6z m174 -3 c12 -12 22 -25 22 -30 0 -6 -9 -1 -20 10 -11 11 -24 20
-30 20 -5 0 -10 5 -10 10 0 16 14 12 38 -10z m-59 -17 c-10 -12 -10 -15 -1 -9
16 10 54 -3 46 -15 -4 -6 -11 -6 -20 2 -10 9 -14 9 -14 0 0 -6 -16 -27 -35
-47 -32 -32 -52 -36 -22 -5 10 11 9 13 -6 7 -10 -3 -25 -6 -34 -6 -9 0 -13 -6
-10 -14 7 -18 -12 -36 -37 -36 -12 0 -16 4 -11 8 6 4 10 15 10 25 0 9 3 16 7
15 3 -2 17 7 31 20 13 13 30 22 38 20 12 -3 15 2 18 37 1 9 11 15 27 15 24 0
25 -2 13 -17z m101 2 c0 -8 -2 -15 -4 -15 -2 0 -6 7 -10 15 -3 8 -1 15 4 15 6
0 10 -7 10 -15z m127 -77 c-3 -8 -6 -5 -6 6 -1 11 2 17 5 13 3 -3 4 -12 1 -19z
m118 -48 c3 -5 1 -10 -4 -10 -6 0 -11 5 -11 10 0 6 2 10 4 10 3 0 8 -4 11 -10z
m-502 -40 c-3 -12 -8 -19 -11 -16 -5 6 5 36 12 36 2 0 2 -9 -1 -20z m213 -16
c17 -14 17 -15 1 -10 -10 3 -23 6 -28 6 -5 0 -9 5 -9 10 0 14 13 12 36 -6z
m-35 -41 c17 -17 29 -16 29 3 0 8 5 12 10 9 6 -3 10 -15 10 -27 0 -15 -4 -18
-17 -13 -10 4 -28 10 -40 12 -13 3 -20 10 -17 15 4 6 -2 5 -14 -1 -11 -6 -22
-16 -25 -23 -3 -10 -10 -8 -26 6 -11 11 -21 22 -21 25 0 12 99 6 111 -6z m284
-13 c10 -11 16 -20 13 -20 -3 0 -13 9 -23 20 -10 11 -16 20 -13 20 3 0 13 -9
23 -20z m-405 -15 c0 -8 -4 -15 -10 -15 -5 0 -7 7 -4 15 4 8 8 15 10 15 2 0 4
-7 4 -15z m445 -15 c3 -5 1 -10 -4 -10 -6 0 -11 5 -11 10 0 6 2 10 4 10 3 0 8
-4 11 -10z m42 -26 c-3 -3 -12 -4 -19 -1 -8 3 -5 6 6 6 11 1 17 -2 13 -5z m17
-53 c3 -4 -6 -6 -19 -3 -14 2 -25 6 -25 8 0 8 39 4 44 -5z"/>
<path d="M1415 3330 c-3 -5 -1 -10 4 -10 6 0 11 5 11 10 0 6 -2 10 -4 10 -3 0
-8 -4 -11 -10z"/>
<path d="M906 3263 c-6 -14 -5 -15 5 -6 7 7 10 15 7 18 -3 3 -9 -2 -12 -12z"/>
<path d="M696 3017 c3 -10 9 -15 12 -12 3 3 0 11 -7 18 -10 9 -11 8 -5 -6z"/>
<path d="M785 2970 c-3 -5 -1 -10 4 -10 6 0 11 5 11 10 0 6 -2 10 -4 10 -3 0
-8 -4 -11 -10z"/>
<path d="M1226 3681 c-10 -11 -19 -25 -20 -33 -15 -63 -19 -77 -27 -73 -4 3
-11 0 -15 -6 -5 -8 -3 -9 6 -4 10 6 12 -2 8 -39 -3 -25 -2 -46 3 -46 5 0 9 18
9 39 0 22 10 61 22 88 12 26 22 51 22 55 1 3 5 10 10 15 5 5 6 3 2 -4 -5 -8
-1 -13 10 -13 14 0 15 2 3 18 -7 9 -14 18 -15 20 0 1 -9 -7 -18 -17z"/>
<path d="M1171 3614 c0 -11 3 -14 6 -6 3 7 2 16 -1 19 -3 4 -6 -2 -5 -13z"/>
<path d="M1155 3541 c-3 -5 -1 -12 5 -16 5 -3 10 1 10 9 0 18 -6 21 -15 7z"/>
<path d="M1286 3527 c-3 -15 -10 -26 -14 -23 -12 7 -13 -85 -2 -119 9 -28 10
-27 5 11 -3 24 2 60 11 87 9 26 14 52 12 59 -3 7 -8 0 -12 -15z"/>
<path d="M1126 3525 c-9 -24 -6 -107 5 -130 6 -14 8 -3 4 35 -3 30 -1 62 5 70
8 12 10 9 11 -15 1 -23 3 -25 6 -8 2 13 -2 32 -10 43 -13 18 -15 19 -21 5z"/>
<path d="M1161 3394 c0 -11 3 -14 6 -6 3 7 2 16 -1 19 -3 4 -6 -2 -5 -13z"/>
<path d="M1240 3357 c25 -43 40 -56 33 -28 -3 11 -16 30 -30 43 l-25 23 22
-38z"/>
<path d="M1221 3335 c24 -25 48 -45 54 -45 5 0 2 5 -8 11 -10 6 -22 22 -27 35
-5 13 -16 24 -25 24 -8 0 -15 5 -15 10 0 6 -5 10 -11 10 -6 0 8 -20 32 -45z"/>
<path d="M1332 3325 c-8 -17 -18 -25 -27 -21 -8 3 -15 1 -15 -4 0 -6 5 -10 11
-10 5 0 8 -4 5 -9 -3 -4 4 -17 16 -27 12 -11 19 -14 15 -8 -3 6 -2 28 4 48 13
47 7 67 -9 31z"/>
<path d="M398 3297 c-7 -7 -26 -21 -42 -31 -23 -15 -30 -16 -37 -5 -4 7 -11
10 -15 6 -4 -4 -2 -13 4 -19 9 -9 22 -6 57 11 24 12 47 26 50 32 4 5 10 7 15
4 5 -3 11 -1 15 5 9 14 -31 12 -47 -3z"/>
<path d="M480 3290 c0 -13 11 -13 30 0 12 8 11 10 -7 10 -13 0 -23 -4 -23 -10z"/>
<path d="M392 3258 c-7 -7 -12 -19 -12 -27 0 -11 4 -10 20 4 21 19 26 35 12
35 -4 0 -13 -5 -20 -12z"/>
<path d="M1290 3237 c11 -21 20 -54 21 -75 0 -20 4 -46 9 -57 7 -15 9 -9 10
25 0 38 2 42 12 26 14 -24 3 -134 -16 -155 -7 -9 -18 -31 -24 -49 -6 -18 -20
-44 -31 -58 -17 -22 -20 -23 -25 -7 -4 15 -4 14 -3 -2 1 -11 -9 -35 -21 -53
-31 -42 -18 -41 20 2 30 35 46 59 70 106 6 14 19 34 29 45 9 11 19 44 21 74 6
57 -9 134 -23 125 -5 -3 -9 1 -9 8 0 7 -14 29 -31 48 l-30 35 21 -38z"/>
<path d="M1255 3240 c10 -11 20 -20 22 -20 2 0 -2 9 -9 20 -7 11 -17 20 -22
20 -5 0 -1 -9 9 -20z"/>
<path d="M135 3240 c-3 -5 -2 -10 4 -10 5 0 13 5 16 10 3 6 2 10 -4 10 -5 0
-13 -4 -16 -10z"/>
<path d="M259 3222 c8 -28 7 -34 -7 -38 -9 -3 -25 -10 -34 -15 -12 -6 -18 -6
-18 2 0 5 -5 7 -10 4 -6 -4 -24 5 -41 19 -31 27 -59 34 -59 16 0 -5 7 -10 15
-10 9 0 18 -7 21 -15 3 -8 21 -24 40 -36 l35 -21 39 26 c22 14 40 24 40 21 0
-10 -39 -43 -44 -37 -3 3 -6 0 -6 -7 0 -6 10 -16 23 -21 20 -8 20 -9 -13 -16
-34 -7 -34 -8 -10 -15 50 -14 57 -11 58 29 1 20 4 48 7 62 3 17 -3 34 -20 55
l-25 30 9 -33z"/>
<path d="M216 3225 c10 -8 24 -14 29 -14 6 0 1 6 -9 14 -11 8 -24 15 -30 15
-5 0 -1 -7 10 -15z"/>
<path d="M300 3219 c0 -5 5 -7 10 -4 6 3 10 8 10 11 0 2 -4 4 -10 4 -5 0 -10
-5 -10 -11z"/>
<path d="M95 3180 c3 -5 11 -10 16 -10 6 0 7 5 4 10 -3 6 -11 10 -16 10 -6 0
-7 -4 -4 -10z"/>
<path d="M1260 3186 c0 -2 8 -10 18 -17 15 -13 16 -12 3 4 -13 16 -21 21 -21
13z"/>
<path d="M108 3134 c6 -3 12 -11 12 -18 0 -7 10 -12 23 -10 12 1 27 3 32 3 16
2 -17 18 -50 24 -16 4 -24 4 -17 1z"/>
<path d="M297 3080 c3 -11 12 -20 19 -20 21 0 17 -18 -6 -25 -12 -4 -31 0 -45
9 -13 9 -40 16 -58 16 -19 0 -40 7 -47 15 -10 13 -15 13 -21 3 -5 -7 -3 -16 4
-20 7 -4 -3 -8 -23 -8 -51 0 -74 -9 -89 -32 -17 -27 -4 -37 14 -11 15 22 59
38 76 27 6 -4 4 -13 -7 -25 -9 -10 -14 -19 -9 -19 4 0 -3 -9 -16 -20 -31 -25
-12 -26 21 0 14 11 19 20 12 20 -7 0 -10 5 -7 10 8 13 45 13 45 -1 0 -6 -7
-17 -15 -25 -8 -9 -15 -12 -15 -8 0 11 -45 -39 -46 -51 -2 -20 -17 -51 -37
-72 -23 -26 -17 -40 10 -28 10 5 21 7 25 7 5 -1 21 12 37 28 35 37 49 39 26 4
-28 -43 -8 -39 35 7 38 41 40 42 54 24 18 -25 31 -14 17 13 -7 13 -7 22 1 30
15 15 3 15 -23 2 -15 -8 -19 -7 -19 5 0 8 7 15 16 15 12 0 8 9 -15 35 -40 46
-40 59 2 51 106 -20 119 -20 138 5 18 24 11 59 -13 59 -6 0 -3 -10 8 -22 l19
-22 -32 22 c-38 27 -43 27 -36 2z m-167 -154 c0 -3 -4 -8 -10 -11 -5 -3 -10
-1 -10 4 0 6 5 11 10 11 6 0 10 -2 10 -4z m-10 -36 c-20 -13 -33 -13 -25 0 3
6 14 10 23 10 15 0 15 -2 2 -10z m-21 -42 c-9 -16 -14 -19 -17 -9 -2 7 2 17 9
22 20 13 21 11 8 -13z"/>
<path d="M381 3053 c-7 -8 -10 -17 -6 -21 4 -4 10 -1 12 6 3 6 9 10 14 6 5 -3
9 -1 9 5 0 17 -14 19 -29 4z"/>
<path d="M1497 3005 c-10 -29 -34 -67 -59 -92 -39 -40 -68 -58 -52 -31 4 7 3
8 -4 4 -6 -4 -8 -14 -5 -22 4 -12 20 -2 64 42 55 55 86 109 77 136 -3 7 -12
-10 -21 -37z"/>
<path d="M80 3013 c-8 -3 -19 -12 -23 -19 -4 -8 -15 -14 -22 -14 -8 0 -15 -4
-15 -9 0 -5 11 -6 25 -3 13 4 24 11 24 15 0 5 8 15 18 23 19 14 17 16 -7 7z"/>
<path d="M455 3001 c-3 -6 -14 -11 -24 -11 -10 0 -23 -6 -29 -13 -13 -15 -66
-22 -57 -7 9 15 -15 12 -31 -4 -15 -16 -19 -30 -6 -22 5 3 15 -3 23 -12 41
-50 42 -52 30 -66 -7 -9 -8 -22 -2 -37 l9 -24 13 28 c11 24 10 32 -9 65 l-21
38 34 0 c32 0 35 -2 35 -30 0 -17 -7 -43 -14 -58 -14 -27 -14 -27 15 -24 33 4
37 -5 12 -25 -13 -11 -17 -11 -21 -1 -3 10 -7 10 -18 1 -19 -15 -18 -30 2 -22
10 4 17 -1 21 -16 3 -11 10 -21 17 -21 6 0 4 -5 -4 -10 -12 -8 -10 -10 10 -10
24 -1 24 -2 -7 -17 -18 -9 -33 -20 -33 -25 0 -5 9 -4 19 2 28 15 51 12 51 -5
0 -9 -9 -15 -22 -15 -13 -1 -34 -7 -48 -15 -30 -17 -15 -19 28 -4 22 8 36 7
53 -1 21 -12 22 -11 15 31 -4 24 -13 49 -20 54 -26 20 -24 121 2 128 16 4 16
5 0 6 -10 0 -18 6 -18 12 0 5 5 7 11 3 8 -4 9 4 4 27 -4 19 -11 36 -16 37 -14
5 -11 50 4 55 6 2 9 7 6 11 -4 4 -10 3 -14 -3z"/>
<path d="M1600 2982 c0 -26 -5 -33 -25 -38 -26 -6 -26 -7 -6 -21 33 -23 62 -1
54 40 -8 45 -23 58 -23 19z m0 -46 c0 -3 -4 -8 -10 -11 -5 -3 -10 -1 -10 4 0
6 5 11 10 11 6 0 10 -2 10 -4z"/>
<path d="M260 2993 c0 -5 7 -18 15 -29 13 -18 14 -18 8 4 -5 22 -23 41 -23 25z"/>
<path d="M1544 2979 c-19 -22 -19 -22 4 -10 12 6 22 16 22 21 0 15 -5 12 -26
-11z"/>
<path d="M1340 2965 c-7 -9 -11 -17 -9 -20 3 -2 10 5 17 15 14 24 10 26 -8 5z"/>
<path d="M320 2895 c0 -5 5 -17 10 -25 5 -8 10 -10 10 -5 0 6 -5 17 -10 25 -5
8 -10 11 -10 5z"/>
<path d="M277 2873 c-4 -3 4 -20 17 -37 12 -17 29 -49 36 -71 11 -30 15 -35
18 -20 2 11 9 26 16 34 9 12 8 14 -6 8 -11 -4 -19 0 -23 12 -8 27 -51 81 -58
74z"/>
<path d="M1312 2844 c-9 -7 -14 -15 -11 -18 6 -6 59 16 59 25 0 10 -30 6 -48
-7z"/>
<path d="M530 2829 c0 -5 5 -7 10 -4 6 3 10 8 10 11 0 2 -4 4 -10 4 -5 0 -10
-5 -10 -11z"/>
<path d="M1673 2822 c17 -19 23 -68 10 -75 -12 -6 -42 30 -35 40 4 4 -2 0 -14
-10 -11 -9 -28 -17 -37 -17 -9 0 -19 -4 -22 -10 -4 -6 1 -7 12 -3 16 6 16 4
-2 -16 -22 -26 -74 -55 -82 -47 -3 3 -23 -4 -44 -14 -42 -22 -64 -26 -54 -10
11 19 -10 10 -83 -34 -80 -48 -122 -56 -312 -58 -53 0 -86 -4 -75 -8 16 -6 17
-8 5 -12 -8 -3 -6 -3 5 -1 11 3 31 4 45 3 32 -2 25 -3 159 10 63 5 127 17 144
25 17 8 37 15 46 15 9 0 25 7 35 15 23 17 14 20 -17 4 -21 -10 -21 -9 2 10 24
22 47 28 36 11 -9 -15 1 -12 46 11 22 11 45 19 50 17 8 -3 -13 -14 -118 -66
-17 -9 -30 -19 -27 -23 2 -4 -1 -11 -7 -15 -8 -4 -9 -3 -5 4 16 27 -24 10 -44
-18 -13 -18 -30 -30 -43 -29 -21 0 -21 1 -2 9 18 8 18 9 2 9 -10 1 -20 -5 -23
-13 -3 -8 -20 -17 -38 -20 -18 -4 -41 -13 -52 -21 -18 -14 -17 -14 11 -15 l30
-1 -44 -39 c-24 -22 -38 -40 -32 -40 6 0 29 18 51 40 22 22 46 40 54 40 8 0
18 5 21 10 3 6 15 10 26 10 13 0 18 -4 13 -12 -4 -6 -3 -8 4 -4 6 3 15 -2 21
-11 9 -16 10 -16 11 -1 0 9 4 19 8 22 4 2 3 -25 -4 -62 -6 -37 -10 -68 -10
-69 1 0 25 4 54 9 63 13 93 1 109 -43 6 -16 8 -29 3 -29 -4 0 -10 -10 -14 -23
-3 -15 -23 -31 -58 -48 -46 -23 -64 -26 -133 -23 -65 2 -70 1 -28 -4 28 -4 55
-11 60 -16 4 -5 -2 -7 -14 -3 -13 3 -23 1 -23 -4 0 -12 14 -11 86 2 68 13 81
18 64 29 -9 5 -9 9 -1 14 6 4 11 2 11 -4 0 -6 5 -8 11 -4 8 4 8 0 0 -15 -7
-11 -15 -21 -19 -22 -4 0 -16 -2 -27 -5 -11 -2 -54 -8 -96 -12 -64 -6 -79 -5
-88 8 -7 8 -9 9 -6 3 4 -9 -3 -13 -24 -13 -17 0 -31 -5 -31 -11 0 -5 5 -7 12
-3 7 4 8 3 4 -4 -4 -7 -15 -12 -24 -13 -11 0 -12 -2 -4 -6 7 -3 23 2 36 11 32
20 78 14 90 -13 12 -27 9 -30 -49 -38 -35 -4 -46 -3 -41 6 6 8 1 8 -18 -1 -14
-6 -26 -14 -26 -17 0 -8 61 -7 128 3 l54 8 -4 -28 c-2 -21 -11 -30 -38 -40
-19 -7 -29 -13 -21 -13 41 -2 -8 -13 -100 -21 -57 -5 -119 -12 -137 -16 l-33
-7 2 44 c2 24 0 54 -5 67 -7 20 -4 22 31 23 l38 1 -38 10 c-27 7 -37 14 -33
25 3 8 6 30 6 49 0 19 5 34 11 34 6 0 38 -14 71 -30 33 -17 65 -29 72 -26 6 2
4 5 -5 5 -9 1 -24 10 -33 20 -10 11 -31 23 -48 26 -35 8 -44 25 -28 54 10 20
8 21 -31 21 -35 0 -40 2 -33 18 4 9 8 47 9 83 2 36 8 76 15 88 13 24 15 24
110 5 19 -4 32 -3 27 1 -8 9 66 55 89 55 8 0 14 5 14 10 0 15 -16 12 -60 -10
-50 -26 -89 -25 -202 2 -72 17 -100 29 -125 53 -29 27 -32 36 -27 64 7 35 12
38 104 64 135 38 130 36 73 30 -49 -5 -51 -4 -46 16 7 29 -5 26 -17 -4 -6 -15
-20 -27 -37 -31 -41 -10 -83 -43 -83 -64 0 -10 -6 -20 -12 -22 -21 -7 60 -107
97 -122 14 -5 16 -9 7 -18 -7 -7 -12 -20 -12 -30 0 -10 -5 -17 -12 -15 -6 1
-16 -15 -21 -37 l-10 -38 -76 5 c-42 2 -85 8 -96 13 -19 7 -19 6 -5 -12 14
-17 14 -18 -2 -6 -10 8 -17 17 -16 20 1 4 -4 20 -10 35 -7 16 -12 34 -12 42 0
7 -16 44 -35 83 -40 82 -61 91 -130 59 -36 -17 -44 -25 -40 -41 3 -12 6 -41 7
-66 2 -25 7 -48 12 -51 5 -4 -5 -14 -21 -23 -30 -15 -40 -32 -63 -109 -13 -42
-3 -87 29 -122 10 -11 21 -31 24 -45 3 -14 17 -70 32 -125 15 -55 29 -112 32
-127 3 -15 13 -28 24 -31 10 -3 19 -11 18 -19 0 -10 -2 -10 -6 0 -8 20 -22 14
-21 -10 3 -58 39 -310 53 -368 9 -36 17 -70 17 -77 1 -7 6 -9 11 -6 6 4 8 -5
4 -23 -3 -16 1 -75 8 -129 14 -100 14 -100 -16 -219 -16 -65 -39 -139 -51
-165 -27 -59 -31 -137 -6 -135 10 1 16 -1 15 -5 -3 -9 35 -47 56 -54 20 -7 23
-37 5 -55 -8 -8 -8 -12 -1 -12 6 0 17 7 24 17 21 24 73 43 122 43 32 0 53 -8
85 -30 22 -17 43 -39 46 -48 12 -46 16 -111 6 -117 -6 -3 -10 3 -10 16 0 30
-9 19 -12 -14 -1 -14 -6 -23 -10 -21 -10 7 2 57 16 66 6 4 7 10 3 14 -3 4 -13
1 -21 -5 -13 -11 -14 -8 -6 21 12 41 13 38 -5 38 -8 0 -15 6 -15 13 0 7 -15
21 -32 31 -18 9 -26 11 -18 4 25 -22 52 -68 39 -68 -8 0 -8 -4 1 -15 7 -9 10
-18 6 -22 -3 -3 -6 -1 -6 5 0 7 -4 12 -9 12 -5 0 -7 -10 -3 -22 3 -14 2 -19
-6 -14 -8 5 -12 -3 -12 -25 l0 -32 -69 7 c-37 3 -85 13 -104 21 -41 17 -66 20
-52 6 53 -49 372 -79 800 -75 425 3 671 28 706 71 11 12 8 13 -17 7 -27 -6
-28 -6 -9 9 28 22 59 7 63 -30 3 -27 -1 -32 -40 -48 -47 -18 -145 -31 -117
-15 9 5 36 12 60 15 24 3 48 10 54 16 7 8 4 10 -10 6 -64 -18 -155 -30 -303
-42 -155 -12 -161 -13 -82 -16 l85 -3 -70 -6 c-48 -4 -64 -8 -52 -14 9 -4 27
-6 40 -2 12 3 28 1 35 -3 21 -13 -107 -20 -463 -27 -329 -7 -335 -6 -542 35
-24 5 -43 5 -43 2 0 -11 150 -42 259 -52 113 -11 592 -4 741 11 47 5 112 11
145 14 59 6 59 6 -15 -9 -41 -8 -115 -17 -165 -21 -49 -4 -85 -8 -80 -10 6 -1
24 -5 40 -9 l30 -7 -22 -18 c-12 -9 -19 -20 -16 -24 3 -3 2 -11 -4 -18 -12
-16 -15 -58 -4 -58 13 0 20 -39 8 -43 -6 -2 21 -2 59 -1 l69 3 -55 -9 c-30 -5
-133 -14 -228 -19 -168 -9 -241 -21 -131 -21 32 0 49 -4 41 -9 -7 -4 -87 -9
-178 -10 -142 -2 -165 0 -170 14 -5 12 -19 15 -63 14 -133 -5 -399 60 -458
111 -25 22 -25 24 -21 129 6 157 28 194 128 215 8 1 15 8 15 14 0 6 3 14 8 18
4 4 7 11 7 17 0 5 -14 -3 -31 -17 -17 -14 -37 -26 -45 -26 -8 0 -14 -3 -14 -8
0 -4 -10 -12 -22 -17 -39 -18 -59 -76 -65 -184 -3 -54 -3 -110 0 -123 13 -51
180 -130 314 -149 43 -6 80 -12 83 -14 35 -22 655 -26 810 -6 267 35 460 99
506 169 20 31 21 126 3 222 -13 68 -27 87 -64 92 -35 4 -41 31 -8 33 24 2 45
15 25 15 -15 0 -16 36 -2 45 6 3 10 -2 10 -12 0 -13 6 -9 19 13 11 18 41 42
66 55 26 13 50 30 53 37 2 7 -11 57 -31 110 -19 53 -45 133 -57 177 -12 44
-64 206 -115 360 -106 318 -106 319 -110 400 -9 155 -25 286 -40 323 -15 37
-15 43 -1 69 8 15 20 38 27 49 9 18 5 39 -24 120 -20 55 -47 138 -62 187 -17
57 -36 99 -56 121 l-30 34 21 34 c21 35 27 88 10 88 -5 0 -10 -8 -10 -19 0
-10 -8 -25 -17 -32 -15 -11 -16 -11 -5 1 15 18 16 92 0 108 -19 19 -33 14 -15
-6z m-22 -66 c5 3 9 0 9 -6 0 -7 -6 -10 -14 -7 -8 3 -22 -3 -32 -14 -9 -10
-21 -19 -26 -19 -5 0 3 13 19 29 15 16 30 25 31 20 2 -5 8 -7 13 -3z m-17
-138 c23 -21 35 -15 16 7 -18 22 9 20 35 -3 35 -30 53 -67 85 -178 18 -60 37
-117 42 -128 5 -10 6 -16 1 -13 -4 3 -8 -17 -8 -43 0 -27 3 -46 7 -44 5 3 8
12 8 20 0 8 4 14 10 14 11 0 3 -28 -15 -50 -7 -8 -15 -22 -18 -30 -4 -12 -6
-11 -6 3 -1 9 -8 17 -17 17 -8 0 -12 5 -9 10 3 6 -1 10 -9 10 -13 0 -22 21
-14 33 1 1 -4 12 -11 25 -8 15 -8 22 -1 22 7 0 7 6 0 21 -7 11 -9 27 -6 35 8
20 -5 49 -14 34 -4 -7 -10 8 -14 33 -5 35 -11 45 -22 40 -11 -4 -14 2 -12 28
2 27 -1 34 -17 37 -18 2 -18 1 -5 -10 9 -7 14 -21 12 -31 -2 -9 5 -32 16 -50
24 -40 35 -96 22 -112 -7 -9 -7 -21 0 -39 13 -35 17 -33 13 7 l-3 32 10 -30
c6 -16 8 -39 6 -49 -3 -11 0 -28 5 -38 12 -22 3 -58 -14 -58 -7 0 -13 20 -15
51 -2 27 -7 60 -12 72 -10 23 -10 19 5 -124 5 -43 11 -58 24 -62 12 -3 21 -18
25 -40 10 -55 31 -60 23 -6 -5 27 -4 38 2 29 5 -8 12 -42 15 -74 3 -33 13
-114 22 -180 8 -67 17 -139 18 -161 1 -22 10 -53 20 -70 l17 -30 -6 28 c-3 16
-3 38 1 50 6 18 10 11 20 -33 6 -30 19 -81 27 -112 8 -32 10 -55 6 -52 -5 3
-9 0 -9 -7 0 -21 -50 44 -74 96 -17 37 -24 70 -25 124 -1 40 -8 106 -16 145
-8 39 -15 76 -15 81 0 6 -5 3 -11 -5 -9 -13 -10 -12 -5 2 3 10 -2 34 -11 55
-8 21 -17 62 -19 92 -2 30 -7 57 -10 60 -4 3 -4 -18 -2 -46 3 -29 1 -53 -4
-53 -5 0 -4 -9 3 -21 7 -13 7 -25 1 -31 -5 -5 -2 -42 10 -96 10 -48 24 -121
32 -162 8 -41 23 -103 35 -137 22 -65 26 -89 12 -63 -30 52 -81 240 -97 355
-3 28 -8 45 -11 39 -3 -10 8 -95 38 -269 5 -33 21 -84 36 -114 14 -30 39 -104
54 -165 29 -116 69 -239 76 -232 2 2 -8 39 -22 82 -25 73 -44 165 -32 154 3
-3 22 -63 42 -135 33 -119 72 -215 98 -240 10 -10 8 -2 -10 42 -4 11 -3 14 6
8 11 -6 11 -3 1 16 -18 35 -23 38 -16 9 6 -21 5 -22 -4 -7 -6 9 -8 21 -5 26 8
14 -31 155 -44 159 -6 2 -11 17 -11 33 0 19 4 28 11 24 6 -4 8 -14 5 -21 -3
-8 5 -33 19 -54 14 -22 25 -49 25 -60 0 -11 12 -49 26 -83 35 -82 64 -185 58
-202 -3 -8 6 -26 20 -40 14 -14 25 -36 25 -48 -1 -20 -2 -20 -6 -2 -3 11 -12
24 -19 30 -8 5 -32 44 -54 85 -25 48 -40 67 -40 53 0 -12 5 -25 10 -28 14 -8
84 -146 83 -162 -1 -29 -4 -33 -19 -33 -11 0 -14 5 -10 16 5 13 1 15 -18 10
-48 -12 -112 22 -197 105 -79 76 -98 91 -84 69 14 -22 -10 -7 -67 41 -60 53
-102 117 -92 142 2 7 -23 57 -56 110 -33 54 -60 103 -59 110 3 15 -9 42 -34
82 l-18 30 6 -35 6 -35 -20 35 c-24 41 -101 270 -101 298 0 11 -9 46 -19 79
-22 69 -38 228 -24 236 6 4 11 -21 12 -62 2 -63 22 -165 35 -179 10 -9 6 21
-9 78 -17 63 -19 118 -5 140 8 12 10 9 10 -13 0 -15 6 -38 14 -50 8 -12 17
-37 21 -56 4 -19 13 -40 20 -47 6 -7 22 -66 35 -131 12 -65 26 -127 31 -138
15 -39 10 29 -11 130 -11 54 -18 100 -16 103 9 8 38 -127 51 -237 3 -24 10
-50 15 -57 6 -6 9 -16 8 -20 -6 -17 47 -154 59 -154 8 0 2 22 -17 63 -17 34
-30 74 -30 88 0 14 -3 29 -6 32 -8 8 -15 64 -17 149 -2 62 0 68 18 68 15 0 17
-2 6 -9 -10 -6 -11 -20 -6 -52 5 -24 8 -60 9 -79 1 -22 6 -34 14 -33 7 2 12
-8 12 -25 0 -15 3 -38 7 -52 l7 -25 7 25 c6 21 7 19 8 -14 1 -43 19 -114 34
-133 7 -10 2 -13 -19 -14 -24 -1 -22 -3 13 -11 29 -6 49 -18 63 -39 12 -16 17
-29 12 -29 -5 0 -17 11 -26 25 -18 28 -36 33 -36 10 0 -8 7 -15 15 -15 12 0
15 -9 13 -35 -1 -19 4 -41 11 -47 10 -11 11 -10 6 4 -5 13 -2 18 9 18 9 0 16
-6 16 -13 0 -19 80 -122 95 -122 7 0 36 -28 65 -63 54 -63 80 -85 40 -34 -60
78 -115 174 -160 283 -69 164 -91 310 -140 939 -18 226 -37 320 -67 320 -23 0
-35 -39 -24 -72 9 -26 9 -29 -4 -18 -11 9 -34 11 -75 7 -33 -4 -60 -3 -60 1 3
42 30 107 51 119 l24 14 -25 -5 c-24 -5 -24 -4 -6 9 11 8 26 15 34 15 7 0 10
5 7 10 -3 6 2 13 12 16 52 17 72 27 68 34 -3 5 4 6 14 3 11 -3 28 0 38 6 17
10 17 10 -2 11 -11 1 -3 7 20 14 51 16 66 15 89 -6z m-1139 -18 c-3 -5 1 -10
9 -10 9 0 16 -6 16 -14 0 -8 7 -17 16 -20 9 -4 14 -13 10 -21 -3 -8 -1 -15 4
-15 6 0 6 -10 0 -26 -13 -33 -13 -34 4 -34 7 0 19 -7 26 -15 16 -20 6 -19 -25
1 -24 16 -95 21 -115 9 -5 -3 -7 0 -4 9 3 8 28 20 55 26 27 7 49 16 49 20 0 7
-56 -7 -102 -25 -12 -5 -18 -2 -18 6 0 8 -3 31 -6 51 -6 36 -5 39 27 53 40 17
63 19 54 5z m825 -44 c0 -3 -4 -8 -10 -11 -5 -3 -10 -1 -10 4 0 6 5 11 10 11
6 0 10 -2 10 -4z m-19 -59 c-8 -8 -14 -7 -23 2 -11 11 -10 13 0 7 7 -4 15 0
19 10 5 12 8 14 11 5 2 -7 -1 -18 -7 -24z m-404 -43 c-3 -3 -12 -4 -19 -1 -8
3 -5 6 6 6 11 1 17 -2 13 -5z m33 -19 c-5 -14 -7 -38 -4 -55 4 -19 2 -30 -5
-30 -12 0 -14 11 -11 48 3 37 -49 28 -63 -12 -10 -27 -16 -16 -10 17 5 23 10
27 38 27 18 0 38 7 45 15 18 22 21 19 10 -10z m-442 -2 c-10 -2 -26 -2 -35 0
-10 3 -2 5 17 5 19 0 27 -2 18 -5z m62 -3 c0 -5 -2 -10 -4 -10 -3 0 -8 5 -11
10 -3 6 -1 10 4 10 6 0 11 -4 11 -10z m-22 -26 c4 -6 21 -18 37 -27 17 -8 39
-24 49 -36 19 -21 19 -21 -3 -21 -12 0 -33 12 -46 26 -23 25 -46 25 -44 1 0
-9 2 -9 6 1 8 19 23 14 23 -8 0 -11 5 -20 11 -20 6 0 22 -9 36 -20 14 -11 22
-20 18 -20 -5 0 0 -9 11 -21 17 -19 14 -18 -30 5 -38 20 -51 23 -58 14 -4 -7
-8 -16 -8 -20 0 -13 -21 -9 -36 7 -9 8 -12 19 -9 25 13 21 -8 9 -27 -15 -11
-14 -27 -25 -36 -24 -14 0 -13 2 3 9 18 8 17 9 -8 9 -16 1 -26 -3 -22 -9 3 -5
-1 -10 -10 -10 -15 0 -15 14 1 70 2 9 -2 8 -11 -4 -8 -11 -15 -30 -15 -43 0
-13 -4 -23 -9 -23 -17 0 -22 18 -12 42 4 13 14 41 21 63 7 22 19 45 27 50 18
14 132 13 141 -1z m365 -19 c-3 -8 -9 -15 -14 -15 -10 0 -12 24 -3 33 11 11
24 -3 17 -18z m-170 -27 l42 -1 -30 -12 c-16 -7 -33 -11 -37 -8 -5 2 -8 -3 -8
-11 0 -21 18 -20 58 4 41 25 64 26 55 3 -4 -10 -12 -22 -20 -26 -8 -5 -13 -25
-12 -50 l1 -42 8 38 c4 20 10 40 14 44 10 11 -5 -109 -17 -132 -6 -11 -10 -24
-8 -30 1 -5 -1 -6 -6 -2 -7 7 -11 30 -15 87 -1 8 2 35 6 59 6 30 5 41 -2 37
-17 -10 -25 -92 -14 -126 6 -16 9 -30 7 -30 -2 0 -10 -3 -19 -6 -12 -5 -16 1
-16 22 0 43 -11 74 -25 74 -10 0 -10 -9 2 -41 20 -60 10 -59 -16 1 -21 48 -20
89 1 59 7 -11 11 -11 15 -1 2 6 12 12 21 12 16 1 16 1 0 10 -9 6 -24 24 -32
42 -19 36 -20 41 -6 33 6 -3 29 -7 53 -7z m142 -8 c-18 -5 -23 -9 -12 -10 9
-1 22 -4 27 -5 6 -1 16 -3 23 -4 7 0 13 -17 15 -38 4 -60 2 -156 -4 -175 -7
-22 -51 -23 -79 -2 -18 13 -20 27 -20 120 0 113 5 125 55 123 23 -1 23 -2 -5
-9z m642 -122 c-3 -8 -6 -5 -6 6 -1 11 2 17 5 13 3 -3 4 -12 1 -19z m-1140
-10 c-3 -8 -6 -5 -6 6 -1 11 2 17 5 13 3 -3 4 -12 1 -19z m73 0 c0 -5 -11 -8
-24 -8 -14 0 -27 3 -29 8 -3 4 8 7 24 7 16 0 29 -3 29 -7z m96 -4 c-3 -8 -2
-12 4 -9 12 7 12 -48 0 -85 -10 -33 -18 -12 -23 58 -3 41 -1 52 10 52 10 0 13
-6 9 -16z m1314 -14 c-6 -11 -13 -20 -16 -20 -2 0 0 9 6 20 6 11 13 20 16 20
2 0 0 -9 -6 -20z m-1408 -27 c20 -23 48 -108 48 -145 0 -15 4 -28 8 -28 11 0
-3 94 -22 145 -8 22 -13 42 -11 44 9 9 25 -13 31 -44 3 -20 10 -38 15 -41 5
-3 9 -18 9 -35 0 -33 11 -37 35 -13 20 21 33 9 17 -16 -9 -16 -9 -18 2 -14 8
3 16 -4 20 -20 3 -14 11 -26 16 -26 21 0 8 -28 -36 -73 -43 -45 -47 -47 -64
-32 -10 9 -21 27 -24 40 -4 15 -11 22 -20 19 -10 -4 -19 21 -35 96 -11 56 -26
110 -31 120 -6 10 -10 23 -10 29 0 17 35 13 52 -6z m218 -9 c0 -8 5 -13 11
-11 12 2 43 -74 52 -129 6 -38 6 -38 -8 -14 -8 14 -14 35 -15 47 0 26 -12 35
-35 27 -12 -5 -16 -15 -13 -35 3 -16 1 -29 -4 -29 -4 0 -8 -8 -8 -17 0 -25
-11 -9 -19 29 -5 18 -11 44 -16 57 -4 15 -4 21 3 17 6 -3 13 0 15 6 3 7 6 3 6
-10 1 -19 3 -21 15 -10 7 7 12 17 11 23 -11 37 -13 75 -5 70 6 -3 10 -13 10
-21z m1122 -29 c3 -13 1 -22 -3 -19 -9 5 -13 44 -5 44 2 0 6 -11 8 -25z
m-1034 -45 c0 -19 2 -51 5 -70 l7 -35 -16 34 c-8 19 -13 43 -11 53 3 10 2 18
-2 18 -4 0 -13 12 -20 26 -10 23 -9 26 4 21 8 -4 15 -1 15 6 0 8 4 6 10 -3 5
-8 9 -31 8 -50z m47 21 c-7 -13 27 -31 59 -31 14 0 28 -5 32 -12 4 -7 3 -8 -4
-4 -7 4 -12 2 -12 -3 0 -6 9 -11 20 -11 11 0 21 -6 21 -12 6 -60 5 -62 -31
-66 -38 -4 -47 -8 -37 -19 4 -3 24 -2 44 3 31 7 38 14 44 41 4 22 2 36 -7 44
-14 12 -19 39 -8 39 17 0 33 -39 34 -78 0 -37 -3 -44 -27 -53 -31 -12 -89 -16
-98 -7 -3 3 -3 24 1 46 5 34 9 40 23 33 19 -10 41 -4 41 11 0 6 -7 8 -15 4
-10 -4 -15 1 -16 17 -1 17 -2 18 -6 5 -2 -10 -12 -18 -21 -18 -13 0 -18 -11
-20 -47 -3 -54 -4 -56 -26 -47 -13 5 -16 21 -16 83 0 43 3 81 7 84 10 11 25 8
18 -2z m930 -11 c3 -5 -1 -10 -9 -10 -9 0 -16 5 -16 10 0 6 4 10 9 10 6 0 13
-4 16 -10z m62 -52 c-3 -8 -6 -5 -6 6 -1 11 2 17 5 13 3 -3 4 -12 1 -19z
m-1103 -3 c-4 -8 -8 -15 -10 -15 -2 0 -4 7 -4 15 0 8 4 15 10 15 5 0 7 -7 4
-15z m1143 -27 c-3 -7 -5 -2 -5 12 0 14 2 19 5 13 2 -7 2 -19 0 -25z m-473
-18 c4 -25 3 -31 -4 -20 -5 8 -10 26 -10 39 0 32 6 24 14 -19z m471 -119 c8
-61 19 -130 25 -153 11 -48 12 -64 5 -56 -9 8 -46 170 -44 192 0 11 0 39 -1
61 -2 39 -3 39 -10 10 -4 -16 -8 -23 -9 -14 -1 22 11 81 16 76 2 -2 10 -54 18
-116z m12 77 c-3 -8 -6 -5 -6 6 -1 11 2 17 5 13 3 -3 4 -12 1 -19z m-623 -50
c11 21 14 6 25 -115 6 -76 17 -156 22 -178 6 -22 14 -70 18 -107 5 -40 14 -73
24 -83 10 -9 17 -31 17 -48 0 -18 5 -39 10 -47 7 -10 8 -3 5 25 -4 28 -2 36 5
25 5 -8 10 -21 10 -29 0 -8 9 -33 19 -55 11 -23 25 -54 31 -70 6 -16 13 -26
16 -23 3 3 0 15 -6 27 -6 12 -10 24 -7 26 9 9 68 -129 62 -145 -3 -8 -3 -12 1
-8 10 10 44 -60 38 -76 -4 -11 56 -160 87 -219 17 -32 20 -14 4 24 -13 33 -13
37 2 43 11 4 24 -2 36 -17 10 -13 16 -16 12 -8 -4 8 4 2 19 -15 14 -16 31 -42
38 -57 7 -16 16 -28 21 -28 4 0 3 9 -2 19 -8 14 -7 20 4 25 8 3 17 0 21 -6 4
-7 3 -8 -4 -4 -18 11 -14 -10 4 -24 8 -8 20 -22 25 -32 9 -18 8 -18 -10 -8
-12 6 -21 8 -21 4 0 -3 -11 1 -25 10 -14 9 -25 14 -25 10 0 -4 -6 -2 -12 3 -7
6 -31 13 -53 16 l-40 6 30 -13 c17 -8 30 -20 30 -28 0 -8 16 -15 40 -19 l40
-6 -47 -2 c-32 -1 -48 3 -48 12 -1 8 -4 7 -9 -3 -7 -10 -29 -16 -72 -18 -35
-2 -67 -6 -71 -8 -4 -3 -8 2 -8 11 0 9 3 14 8 12 4 -3 8 5 8 18 1 17 -3 21
-16 18 -10 -3 -20 0 -24 5 -8 14 -77 268 -88 327 -12 63 -38 158 -43 153 -2
-2 3 -26 10 -54 7 -28 16 -86 20 -130 5 -52 10 -72 15 -59 6 16 9 12 15 -20 3
-22 15 -70 26 -107 24 -84 23 -111 -2 -38 -13 39 -17 45 -13 20 11 -69 24
-107 44 -125 16 -15 17 -19 5 -31 -7 -8 -20 -14 -27 -14 -10 0 -9 -3 2 -10 13
-8 12 -10 -5 -11 -40 -3 -45 -4 -46 -14 -1 -16 -31 -45 -40 -40 -4 3 -11 0
-15 -6 -4 -8 -3 -9 4 -5 16 9 15 5 -4 -33 -9 -18 -14 -43 -11 -56 2 -14 1 -23
-2 -20 -4 2 -12 -5 -19 -15 -10 -17 -8 -21 16 -34 26 -15 24 -15 -47 -16 -57
0 -71 3 -64 13 14 16 23 106 12 112 -4 3 -5 13 -2 23 4 13 2 13 -10 -3 -8 -11
-19 -17 -23 -12 -4 4 -2 7 5 7 7 0 10 4 7 9 -6 10 -54 3 -61 -9 -3 -5 3 -6 12
-4 47 11 80 -73 47 -120 -11 -17 -14 -17 -14 -4 0 9 5 18 11 20 7 2 8 15 2 38
-12 45 -36 49 -94 16 -24 -14 -37 -26 -29 -26 13 0 13 -1 0 -10 -12 -8 -10
-10 11 -10 14 0 31 6 38 12 11 11 13 10 8 -4 -8 -24 18 -24 33 0 10 15 10 15
8 -3 -2 -12 -12 -21 -26 -23 -12 -2 -22 -8 -22 -13 0 -6 -36 -9 -87 -7 -80 3
-88 5 -88 23 0 11 -4 30 -8 42 -8 22 18 118 34 129 5 3 9 14 9 25 0 10 8 27
18 37 9 10 30 36 45 57 25 34 22 33 -16 -10 -25 -27 -58 -75 -73 -107 -31 -64
-26 -65 -108 9 -29 26 -42 43 -34 47 7 3 0 5 -17 4 -48 -2 -102 4 -82 9 9 2
17 10 17 16 0 8 4 7 12 -1 17 -17 38 -15 38 3 0 8 10 19 21 26 15 8 19 8 15 0
-4 -6 0 -11 8 -11 9 0 16 -5 16 -11 0 -5 -4 -7 -10 -4 -5 3 -18 2 -27 -4 -15
-8 -12 -10 15 -9 27 1 35 7 46 32 12 28 38 227 35 266 -2 30 -28 -106 -29
-149 0 -24 -3 -41 -7 -38 -9 9 -4 134 7 162 12 30 28 216 40 440 13 259 29
485 36 516 5 26 7 26 102 32 53 3 100 2 103 -2 6 -6 -3 -148 -15 -236 -4 -28
-3 -34 3 -19 5 11 12 56 15 100 13 158 14 162 44 166 24 3 27 -1 30 -32 3 -34
4 -34 16 -12z m-437 27 c18 -13 20 -20 13 -48 -5 -17 -11 -55 -14 -84 -3 -29
-12 -89 -20 -135 -19 -109 -28 -215 -15 -173 5 17 13 55 18 85 28 170 35 203
39 185 6 -28 -16 -182 -44 -310 -46 -210 -54 -254 -54 -284 0 -17 -4 -31 -9
-31 -13 0 -37 -86 -52 -185 -6 -44 -17 -111 -23 -150 l-11 -70 -67 -1 -67 0 6
30 c11 57 23 74 18 26 -5 -41 -4 -39 10 15 8 33 19 76 24 95 23 79 51 219 55
270 2 30 13 109 25 175 23 131 26 164 13 149 -8 -8 -17 -55 -38 -193 l-6 -45
-15 43 c-8 24 -12 45 -9 49 3 3 6 -2 6 -11 0 -9 4 -19 10 -22 5 -3 9 8 9 27
-1 18 3 53 9 77 6 24 9 71 7 105 -3 51 -2 54 4 21 6 -31 9 -34 11 -15 6 56 -2
213 -11 199 -4 -7 -9 -4 -14 10 -3 11 -13 21 -20 21 -8 0 -21 10 -29 22 -15
20 -14 23 1 32 16 9 15 10 -2 16 -18 7 -17 9 10 21 17 8 35 20 41 28 13 16 34
7 34 -16 0 -13 -2 -14 -17 -2 -11 10 -14 10 -9 2 4 -8 2 -13 -8 -13 -8 0 -17
-4 -20 -8 -2 -4 7 -8 21 -7 18 0 27 -6 29 -18 6 -38 12 -27 12 22 1 28 4 56 7
61 11 17 27 -1 21 -24 -5 -21 -5 -21 11 -1 15 19 15 19 9 -7 -3 -15 -2 -30 4
-33 5 -3 10 2 11 12 0 10 2 27 5 38 2 11 5 30 6 43 3 27 42 30 75 7z m-137 -4
c0 -5 -9 -11 -21 -14 -16 -4 -18 -3 -8 9 13 16 29 19 29 5z m880 -85 c0 -16 4
-56 9 -90 6 -33 15 -101 22 -151 6 -49 15 -111 19 -137 7 -55 -4 -56 -14 -1
-3 21 -10 56 -16 78 -9 38 -9 38 -6 -18 1 -32 0 -54 -4 -50 -9 10 -30 96 -30
124 0 18 2 19 15 9 17 -14 18 -8 9 39 -8 38 -24 41 -25 4 0 -16 -4 -37 -9 -48
-6 -12 -7 7 -3 51 5 60 3 72 -11 77 -9 4 -15 17 -15 29 1 17 2 18 6 6 2 -10 8
-18 12 -18 8 0 9 12 12 113 1 69 2 71 15 42 7 -16 13 -43 14 -59z m-1040 53
c0 -6 -4 -7 -10 -4 -5 3 -10 11 -10 16 0 6 5 7 10 4 6 -3 10 -11 10 -16z m406
-1 c-4 -13 -11 -50 -17 -83 -14 -79 -23 -85 -15 -10 3 33 5 72 6 88 0 18 5 27
16 27 12 0 15 -6 10 -22z m-79 -30 c-3 -7 -5 -2 -5 12 0 14 2 19 5 13 2 -7 2
-19 0 -25z m1040 10 c-3 -8 -6 -5 -6 6 -1 11 2 17 5 13 3 -3 4 -12 1 -19z
m-83 -133 c19 -90 18 -88 7 -81 -4 3 -14 40 -21 83 -7 43 -18 87 -26 98 -8 11
-14 24 -14 30 0 32 40 -64 54 -130z m-877 28 c-3 -10 -5 -2 -5 17 0 19 2 27 5
18 2 -10 2 -26 0 -35z m556 10 c5 -26 2 -42 -7 -32 -9 11 -15 59 -7 59 5 0 11
-12 14 -27z m-923 -15 c0 -5 -6 -6 -12 -2 -7 4 -3 -4 10 -18 12 -14 22 -37 22
-54 -1 -28 -1 -28 -16 -9 -14 18 -15 15 -8 -40 4 -33 11 -69 16 -80 6 -15 7
-12 4 13 -3 17 -2 32 3 32 12 0 20 -73 10 -80 -5 -3 -6 -25 -3 -49 3 -23 1
-40 -4 -37 -13 8 -31 98 -42 211 -13 134 -13 135 5 129 8 -4 15 -10 15 -16z
m42 -23 c12 0 22 -15 10 -15 -7 0 -13 -10 -13 -22 -1 -21 -2 -21 -6 -3 -3 11
-9 24 -14 30 -13 14 -11 27 4 18 6 -4 15 -8 19 -8z m26 -96 l-3 -44 -5 52 c-3
29 -1 48 3 44 5 -5 7 -28 5 -52z m839 29 c-3 -7 -5 -2 -5 12 0 14 2 19 5 13 2
-7 2 -19 0 -25z m10 -40 c-3 -8 -6 -5 -6 6 -1 11 2 17 5 13 3 -3 4 -12 1 -19z
m-560 -65 c-3 -10 -5 -4 -5 12 0 17 2 24 5 18 2 -7 2 -21 0 -30z m-307 -120
c0 -31 -3 -54 -6 -50 -9 9 -10 107 -1 107 4 0 7 -25 7 -57z m1347 25 c-3 -8
-6 -5 -6 6 -1 11 2 17 5 13 3 -3 4 -12 1 -19z m-77 -42 c0 -6 -7 -1 -15 10 -8
10 -15 23 -15 28 0 6 7 1 15 -10 8 -10 15 -23 15 -28z m99 -19 c1 -5 -3 -5 -9
-2 -5 3 -10 16 -9 28 0 21 1 21 9 2 5 -11 9 -24 9 -28z m-1082 -79 c-2 -18 -4
-4 -4 32 0 36 2 50 4 33 2 -18 2 -48 0 -65z m960 40 c-3 -8 -6 -5 -6 6 -1 11
2 17 5 13 3 -3 4 -12 1 -19z m137 6 c3 -8 2 -12 -4 -9 -6 3 -10 10 -10 16 0
14 7 11 14 -7z m-1197 -16 c-3 -8 -6 -5 -6 6 -1 11 2 17 5 13 3 -3 4 -12 1
-19z m1156 -20 c9 -31 2 -33 -11 -3 -6 14 -8 25 -3 25 5 0 11 -10 14 -22z m44
-10 c13 7 69 -154 123 -353 11 -44 25 -90 30 -102 5 -13 8 -23 5 -23 -10 0
-34 61 -56 144 -16 64 -25 84 -30 70 -11 -27 -10 -54 1 -29 7 17 9 16 9 -10 1
-16 4 -41 6 -55 l6 -25 -12 25 c-30 65 -39 91 -50 141 -15 77 -51 189 -58 185
-3 -2 -6 12 -7 31 -1 33 1 34 13 17 8 -11 17 -18 20 -16z m-1223 -140 c-13
-84 -23 -159 -24 -167 0 -8 -3 -12 -6 -9 -9 10 34 328 46 328 4 0 -3 -69 -16
-152z m1137 126 c5 -15 8 -29 5 -31 -2 -2 -8 10 -14 26 -13 38 -5 41 9 5z
m-443 -29 c-3 -3 -9 2 -12 12 -6 14 -5 15 5 6 7 -7 10 -15 7 -18z m-589 -95
c-7 -53 -16 -85 -21 -77 -6 9 -10 9 -16 -1 -6 -8 -9 1 -10 25 -1 21 3 45 8 53
7 12 10 8 11 -15 0 -25 3 -21 14 20 8 28 14 61 15 74 0 13 3 21 6 18 4 -4 1
-47 -7 -97z m8 -97 c-3 -10 -5 -2 -5 17 0 19 2 27 5 18 2 -10 2 -26 0 -35z
m688 1 c15 -19 25 -37 22 -40 -2 -2 -16 14 -31 36 -33 50 -28 52 9 4z m-738
-51 c-3 -10 -5 -2 -5 17 0 19 2 27 5 18 2 -10 2 -26 0 -35z m-116 1 c-9 -28
-9 -29 -10 -3 -1 14 2 29 6 32 11 12 13 2 4 -29z m126 -46 c-3 -8 -6 -5 -6 6
-1 11 2 17 5 13 3 -3 4 -12 1 -19z m8 -103 c-3 -31 -9 -54 -12 -52 -2 3 -1 31
2 62 4 31 10 54 12 51 3 -3 2 -30 -2 -61z m-168 -67 c-3 -7 -5 -2 -5 12 0 14
2 19 5 13 2 -7 2 -19 0 -25z m20 -5 c-3 -10 -5 -4 -5 12 0 17 2 24 5 18 2 -7
2 -21 0 -30z m1478 -33 c7 -14 15 -42 19 -62 5 -30 4 -38 -7 -38 -13 0 -31 34
-28 53 1 4 -8 17 -19 29 -11 12 -20 35 -20 51 0 30 0 30 21 11 12 -10 27 -30
34 -44z m-1503 -5 c-2 -14 -9 -28 -15 -32 -7 -4 -8 0 -4 11 4 10 7 24 7 32 0
8 4 14 9 14 4 0 6 -11 3 -25z m195 -47 c-3 -7 -5 -2 -5 12 0 14 2 19 5 13 2
-7 2 -19 0 -25z m597 -4 c3 -8 2 -12 -4 -9 -6 3 -10 10 -10 16 0 14 7 11 14
-7z m446 -68 c0 -17 -38 25 -44 47 -4 18 -1 16 19 -8 13 -17 24 -34 25 -39z
m-1343 38 c-3 -3 -12 -4 -19 -1 -8 3 -5 6 6 6 11 1 17 -2 13 -5z m76 -48 c4
-10 0 -12 -15 -8 -15 4 -17 7 -6 13 17 11 15 11 21 -5z m967 -16 l-35 -6 45
-8 c25 -4 52 -13 61 -19 20 -16 54 -67 43 -67 -5 1 -18 15 -29 33 -11 17 -29
33 -40 35 -19 3 -19 2 2 -15 22 -18 54 -81 52 -105 0 -7 -4 -4 -9 7 -7 15 -9
9 -9 -26 -1 -53 -13 -59 -86 -48 -30 5 -34 7 -15 9 14 2 33 3 43 2 9 -1 17 5
17 14 0 10 -6 14 -14 11 -8 -3 -17 -1 -20 6 -2 7 -5 5 -5 -4 -1 -20 -38 -20
-51 1 -8 12 -10 11 -10 -7 0 -16 -8 -25 -26 -29 -19 -5 -22 -9 -12 -15 8 -5
-19 -9 -67 -9 -94 0 -102 7 -103 87 -2 63 25 101 97 138 38 20 60 24 126 23
56 -1 70 -3 45 -8z m289 -43 c0 -21 -1 -21 -9 -2 -12 28 -12 37 0 30 6 -3 10
-16 9 -28z m143 -4 c-3 -16 -7 -22 -10 -15 -4 13 4 42 11 42 2 0 2 -12 -1 -27z
m-232 -93 c0 -5 -2 -10 -4 -10 -3 0 -8 5 -11 10 -3 6 -1 10 4 10 6 0 11 -4 11
-10z m-657 -13 c3 -7 -3 -13 -14 -13 -13 0 -15 3 -7 13 6 7 12 13 13 13 2 0 5
-6 8 -13z m727 -7 c0 -5 -4 -10 -9 -10 -6 0 -13 5 -16 10 -3 6 1 10 9 10 9 0
16 -4 16 -10z m210 -107 c0 -9 -3 -14 -6 -11 -3 4 -21 0 -40 -8 -26 -11 -171
-44 -192 -44 -2 0 0 5 3 10 3 6 18 10 33 10 34 0 174 38 187 51 13 13 15 11
15 -8z m-187 -20 c-7 -2 -19 -2 -25 0 -7 3 -2 5 12 5 14 0 19 -2 13 -5z m-55
-10 c-10 -2 -28 -2 -40 0 -13 2 -5 4 17 4 22 1 32 -1 23 -4z m-90 -10 c-10 -2
-26 -2 -35 0 -10 3 -2 5 17 5 19 0 27 -2 18 -5z m339 -70 c-3 -10 -5 -4 -5 12
0 17 2 24 5 18 2 -7 2 -21 0 -30z m-470 1 c-3 -3 -12 -4 -19 -1 -8 3 -5 6 6 6
11 1 17 -2 13 -5z m-100 -210 c-3 -3 -12 -4 -19 -1 -8 3 -5 6 6 6 11 1 17 -2
13 -5z m-74 -11 c-7 -2 -21 -2 -30 0 -10 3 -4 5 12 5 17 0 24 -2 18 -5z"/>
<path d="M1550 2611 c0 -5 5 -13 10 -16 6 -3 10 -2 10 4 0 5 -4 13 -10 16 -5
3 -10 2 -10 -4z"/>
<path d="M1700 2501 c0 -5 5 -13 10 -16 6 -3 10 -2 10 4 0 5 -4 13 -10 16 -5
3 -10 2 -10 -4z"/>
<path d="M1446 2485 c-15 -11 -16 -15 -5 -15 8 0 24 7 35 15 14 11 15 14 4 14
-8 0 -24 -6 -34 -14z"/>
<path d="M1620 2450 c12 -23 24 -40 26 -37 7 7 -22 64 -37 72 -6 4 -1 -12 11
-35z"/>
<path d="M1731 2443 c0 -4 4 -17 9 -28 8 -19 9 -19 9 2 1 12 -3 25 -9 28 -5 3
-10 3 -9 -2z"/>
<path d="M1330 2409 c0 -5 5 -7 10 -4 6 3 10 8 10 11 0 2 -4 4 -10 4 -5 0 -10
-5 -10 -11z"/>
<path d="M1406 2411 c-3 -5 1 -11 9 -15 9 -3 15 0 15 9 0 16 -16 20 -24 6z"/>
<path d="M1596 2260 c1 -110 5 -132 27 -180 l25 -55 1 38 c1 23 -3 36 -10 35
-18 -4 -31 50 -30 122 0 36 -3 88 -7 115 -6 36 -8 16 -6 -75z"/>
<path d="M1620 2358 c0 -8 7 -21 15 -28 19 -16 19 -1 0 24 -12 16 -15 17 -15
4z"/>
<path d="M1621 2248 c0 -44 3 -57 9 -43 12 28 12 93 0 100 -6 4 -10 -17 -9
-57z"/>
<path d="M1768 2268 c-10 -12 -16 -24 -13 -26 7 -7 37 27 33 38 -2 5 -11 0
-20 -12z"/>
<path d="M1646 2211 c-4 -7 -5 -15 -2 -18 9 -9 19 4 14 18 -4 11 -6 11 -12 0z"/>
<path d="M1631 2144 c0 -11 3 -14 6 -6 3 7 2 16 -1 19 -3 4 -6 -2 -5 -13z"/>
<path d="M1650 1978 c0 -7 5 -20 10 -28 8 -13 10 -12 10 3 0 9 0 20 1 24 0 4
-4 9 -10 11 -6 2 -11 -2 -11 -10z"/>
<path d="M1762 1895 c0 -11 4 -31 8 -45 6 -20 8 -21 8 -5 0 11 -4 31 -8 45 -6
20 -8 21 -8 5z"/>
<path d="M1332 1730 c0 -14 2 -19 5 -12 2 6 2 18 0 25 -3 6 -5 1 -5 -13z"/>
<path d="M1830 1518 c0 -10 8 -26 18 -36 10 -10 22 -27 25 -37 4 -10 10 -16
12 -13 3 3 -1 22 -9 44 -10 26 -15 32 -16 19 -1 -16 -4 -14 -15 10 -9 19 -14
24 -15 13z"/>
<path d="M1390 1448 c0 -4 9 -22 20 -40 11 -18 20 -28 20 -23 0 6 -9 24 -20
40 -11 17 -20 27 -20 23z"/>
<path d="M1500 1221 c0 -14 28 -33 39 -27 5 3 11 2 13 -3 1 -4 12 -5 23 0 l20
8 -20 0 c-11 1 -32 8 -47 15 -16 8 -28 11 -28 7z"/>
<path d="M1580 1100 c0 -14 69 -88 70 -74 0 6 -11 21 -25 34 -14 13 -25 29
-25 37 0 7 -4 13 -10 13 -5 0 -10 -5 -10 -10z"/>
<path d="M1670 970 c11 -16 26 -33 32 -36 7 -4 -1 9 -16 29 -34 44 -46 50 -16
7z"/>
<path d="M1910 976 c0 -2 8 -10 18 -17 15 -13 16 -12 3 4 -13 16 -21 21 -21
13z"/>
<path d="M1770 951 c0 -6 4 -13 10 -16 6 -3 7 1 4 9 -7 18 -14 21 -14 7z"/>
<path d="M1986 931 c-4 -6 4 -32 18 -58 30 -58 31 -55 7 15 -10 30 -22 49 -25
43z"/>
<path d="M1950 866 c0 -2 8 -10 18 -17 15 -13 16 -12 3 4 -13 16 -21 21 -21
13z"/>
<path d="M1930 856 c0 -2 8 -10 18 -17 15 -13 16 -12 3 4 -13 16 -21 21 -21
13z"/>
<path d="M1915 810 c10 -11 20 -20 23 -20 3 0 -3 9 -13 20 -10 11 -20 20 -23
20 -3 0 3 -9 13 -20z"/>
<path d="M1990 786 c0 -2 8 -10 18 -17 15 -13 16 -12 3 4 -13 16 -21 21 -21
13z"/>
<path d="M1982 744 c10 -10 20 -16 22 -13 3 3 -5 11 -17 18 -21 13 -21 12 -5
-5z"/>
<path d="M514 2534 c-18 -14 -18 -15 4 -4 12 6 22 13 22 15 0 8 -5 6 -26 -11z"/>
<path d="M900 2245 c0 -8 4 -15 10 -15 5 0 7 7 4 15 -4 8 -8 15 -10 15 -2 0
-4 -7 -4 -15z"/>
<path d="M884 2168 c2 -48 16 -81 16 -37 0 13 3 35 5 49 5 21 4 22 -4 5 -8
-19 -9 -19 -14 5 -2 14 -4 4 -3 -22z"/>
<path d="M520 2009 c0 -5 5 -7 10 -4 6 3 10 8 10 11 0 2 -4 4 -10 4 -5 0 -10
-5 -10 -11z"/>
<path d="M515 1979 c-4 -6 -5 -12 -2 -15 2 -3 7 2 10 11 7 17 1 20 -8 4z"/>
<path d="M530 1930 c-13 -8 -12 -10 3 -10 9 0 17 5 17 10 0 12 -1 12 -20 0z"/>
<path d="M1212 1850 c0 -14 2 -19 5 -12 2 6 2 18 0 25 -3 6 -5 1 -5 -13z"/>
<path d="M1222 1770 c0 -14 2 -19 5 -12 2 6 2 18 0 25 -3 6 -5 1 -5 -13z"/>
<path d="M1073 1645 c0 -22 2 -30 4 -17 2 12 2 30 0 40 -3 9 -5 -1 -4 -23z"/>
<path d="M1122 1650 c0 -14 2 -19 5 -12 2 6 2 18 0 25 -3 6 -5 1 -5 -13z"/>
<path d="M1066 1559 c-4 -23 -5 -44 -2 -46 2 -2 7 14 11 37 4 23 5 43 2 46 -2
3 -7 -14 -11 -37z"/>
<path d="M1236 1460 c12 -100 25 -283 30 -425 3 -82 7 -172 9 -200 l4 -50 -10
43 c-17 72 -20 41 -4 -43 8 -43 12 -83 8 -89 -4 -7 -2 -7 7 1 7 6 16 26 20 45
l8 33 1 -39 c1 -43 17 -40 23 4 l3 25 28 -27 c34 -34 34 -40 -4 -62 -17 -10
-28 -20 -26 -23 3 -2 20 5 38 16 18 11 36 18 41 15 4 -3 8 -1 8 5 0 5 -3 11
-7 13 -5 2 -20 18 -35 36 -23 28 -26 39 -23 85 4 49 4 49 -4 10 -8 -44 -20
-67 -23 -42 0 8 -2 19 -3 24 -2 6 -3 19 -4 30 -1 17 -3 18 -11 5 -6 -9 -10
-10 -10 -3 0 6 4 14 9 17 9 6 4 50 -9 81 -12 26 -32 253 -29 316 2 27 0 52 -4
55 -4 4 -7 12 -7 18 0 6 5 4 10 -4 7 -10 8 2 5 40 -3 30 -10 57 -14 60 -5 3
-14 21 -20 40 -11 35 -11 34 -5 -10z"/>
<path d="M1052 1440 c0 -14 2 -19 5 -12 2 6 2 18 0 25 -3 6 -5 1 -5 -13z"/>
<path d="M1064 1273 c12 -53 26 -235 32 -416 4 -100 11 -193 15 -207 8 -26 6
37 -12 380 -9 178 -21 270 -35 270 -3 0 -3 -12 0 -27z"/>
<path d="M1280 1284 c0 -5 7 -18 15 -28 8 -11 15 -16 15 -10 0 5 -7 18 -15 28
-8 11 -15 16 -15 10z"/>
<path d="M1282 1220 c0 -19 2 -27 5 -17 2 9 2 25 0 35 -3 9 -5 1 -5 -18z"/>
<path d="M872 1040 c0 -14 2 -19 5 -12 2 6 2 18 0 25 -3 6 -5 1 -5 -13z"/>
<path d="M1252 980 c0 -19 2 -27 5 -17 2 9 2 25 0 35 -3 9 -5 1 -5 -18z"/>
<path d="M1341 945 c1 -19 18 -51 18 -35 0 8 -4 22 -9 30 -5 8 -9 11 -9 5z"/>
<path d="M977 772 c-15 -31 -20 -48 -11 -37 18 23 47 85 42 91 -2 2 -16 -22
-31 -54z"/>
<path d="M1620 826 c0 -2 9 -6 20 -9 11 -3 18 -1 14 4 -5 9 -34 13 -34 5z"/>
<path d="M1186 683 c-2 -10 -8 -29 -11 -43 -5 -16 -4 -22 3 -15 5 6 12 25 15
43 7 34 2 44 -7 15z"/>
<path d="M1092 635 c0 -16 2 -22 5 -12 2 9 2 23 0 30 -3 6 -5 -1 -5 -18z"/>
<path d="M1270 606 c-15 -42 -11 -55 6 -17 8 19 12 36 9 39 -2 3 -9 -7 -15
-22z"/>
<path d="M856 597 c3 -10 9 -15 12 -12 3 3 0 11 -7 18 -10 9 -11 8 -5 -6z"/>
<path d="M1065 586 c-10 -7 -19 -23 -20 -34 -1 -17 1 -19 12 -11 7 6 10 15 8
20 -3 4 3 12 12 18 10 5 15 12 12 15 -3 3 -14 0 -24 -8z"/>
<path d="M993 530 c-9 -16 -21 -30 -25 -30 -4 0 -8 -7 -8 -15 0 -24 32 2 51
41 20 42 7 45 -18 4z"/>
<path d="M1235 500 c10 -11 20 -20 22 -20 2 0 -2 9 -9 20 -7 11 -17 20 -22 20
-5 0 -1 -9 9 -20z"/>
<path d="M915 490 c-3 -5 -2 -10 4 -10 5 0 13 5 16 10 3 6 2 10 -4 10 -5 0
-13 -4 -16 -10z"/>
<path d="M981 464 c0 -11 3 -14 6 -6 3 7 2 16 -1 19 -3 4 -6 -2 -5 -13z"/>
<path d="M935 430 c3 -5 14 -10 23 -10 15 0 15 2 2 10 -20 13 -33 13 -25 0z"/>
<path d="M714 1888 c-9 -27 -10 -34 -13 -73 -1 -24 -3 -27 -12 -15 -7 11 -8 6
-4 -20 3 -19 1 -57 -5 -85 -6 -27 -13 -70 -15 -95 -4 -44 -4 -44 5 -10 10 35
43 211 53 283 6 42 2 48 -9 15z"/>
<path d="M570 1780 c0 -5 7 -7 15 -4 8 4 15 8 15 10 0 2 -7 4 -15 4 -8 0 -15
-4 -15 -10z"/>
<path d="M671 1484 c0 -11 3 -14 6 -6 3 7 2 16 -1 19 -3 4 -6 -2 -5 -13z"/>
<path d="M722 1440 c0 -14 2 -19 5 -12 2 6 2 18 0 25 -3 6 -5 1 -5 -13z"/>
<path d="M1503 1790 c0 -25 2 -35 4 -22 2 12 2 32 0 45 -2 12 -4 2 -4 -23z"/>
<path d="M1989 1190 c4 -14 11 -47 15 -73 4 -27 10 -47 12 -44 9 9 -9 107 -22
124 -13 16 -13 16 -5 -7z"/>
<path d="M2101 823 c-1 -12 4 -25 9 -28 12 -7 12 2 0 30 -8 19 -9 19 -9 -2z"/>
<path d="M1426 630 c-38 -12 -106 -79 -106 -105 0 -16 4 -13 16 12 20 41 83
82 137 89 35 5 49 2 80 -19 20 -13 48 -39 63 -56 14 -17 30 -31 35 -31 18 0 8
22 -23 53 -18 18 -31 35 -30 40 1 4 -7 7 -17 7 -11 0 -23 5 -26 10 -7 12 -88
12 -129 0z"/>
<path d="M1630 489 c0 -11 4 -18 10 -14 5 3 7 12 3 20 -7 21 -13 19 -13 -6z"/>
<path d="M1352 459 c2 -6 14 -16 26 -20 29 -11 28 -5 -4 16 -17 11 -25 12 -22
4z"/>
<path d="M1455 450 c3 -5 8 -10 11 -10 2 0 4 5 4 10 0 6 -5 10 -11 10 -5 0 -7
-4 -4 -10z"/>
<path d="M1630 450 c0 -5 5 -10 10 -10 6 0 10 5 10 10 0 6 -4 10 -10 10 -5 0
-10 -4 -10 -10z"/>
<path d="M1626 2814 c-5 -14 -4 -15 9 -4 17 14 19 20 6 20 -5 0 -12 -7 -15
-16z"/>
<path d="M1466 2805 c-11 -8 -15 -15 -9 -15 6 0 16 7 23 15 16 19 11 19 -14 0z"/>
<path d="M1545 2800 c-3 -5 -1 -10 4 -10 6 0 11 5 11 10 0 6 -2 10 -4 10 -3 0
-8 -4 -11 -10z"/>
<path d="M540 2785 c0 -8 2 -15 4 -15 2 0 6 7 10 15 3 8 1 15 -4 15 -6 0 -10
-7 -10 -15z"/>
<path d="M385 2730 c-3 -5 -1 -10 4 -10 6 0 11 5 11 10 0 6 -2 10 -4 10 -3 0
-8 -4 -11 -10z"/>
<path d="M1505 2700 c-3 -5 -2 -10 4 -10 5 0 13 5 16 10 3 6 2 10 -4 10 -5 0
-13 -4 -16 -10z"/>
<path d="M356 2661 c-4 -5 1 -8 9 -7 21 3 31 16 12 16 -9 0 -18 -4 -21 -9z"/>
<path d="M826 2602 c-3 -6 -1 -14 5 -17 14 -9 20 -2 10 14 -6 8 -11 9 -15 3z"/>
<path d="M1047 2453 c-4 -3 -7 -11 -7 -17 0 -6 5 -5 12 2 6 6 9 14 7 17 -3 3
-9 2 -12 -2z"/>
<path d="M1281 2404 c0 -11 3 -14 6 -6 3 7 2 16 -1 19 -3 4 -6 -2 -5 -13z"/>
<path d="M1230 2360 c0 -5 5 -10 10 -10 6 0 10 5 10 10 0 6 -4 10 -10 10 -5 0
-10 -4 -10 -10z"/>
<path d="M1067 2332 c-10 -10 -14 -22 -10 -25 3 -4 1 -7 -5 -7 -7 0 -12 -8
-12 -17 1 -17 1 -17 11 -1 5 10 8 19 7 22 -2 2 6 13 16 25 11 12 17 21 14 21
-3 0 -12 -8 -21 -18z"/>
<path d="M963 2283 c9 -2 25 -2 35 0 9 3 1 5 -18 5 -19 0 -27 -2 -17 -5z"/>
<path d="M1340 2244 l-45 -14 50 5 c27 3 54 10 59 15 13 13 -7 11 -64 -6z"/>
<path d="M1040 2238 c0 -17 60 -81 68 -73 4 3 0 11 -8 16 -11 7 -4 8 21 3 25
-4 39 -2 44 7 5 8 4 10 -4 5 -18 -12 -56 1 -90 30 -20 16 -31 21 -31 12z"/>
<path d="M1100 2000 c-13 -9 -13 -10 0 -9 8 1 26 5 40 9 l25 8 -25 1 c-14 0
-32 -4 -40 -9z"/>
<path d="M645 620 c11 -5 27 -9 35 -9 9 0 8 4 -5 9 -11 5 -27 9 -35 9 -9 0 -8
-4 5 -9z"/>
<path d="M730 550 c0 -5 5 -10 11 -10 5 0 7 5 4 10 -3 6 -8 10 -11 10 -2 0 -4
-4 -4 -10z"/>
<path d="M675 502 c-12 -8 -16 -42 -5 -42 4 0 13 7 20 15 14 17 2 39 -15 27z"/>
<path d="M715 490 c-3 -5 -1 -10 4 -10 6 0 11 5 11 10 0 6 -2 10 -4 10 -3 0
-8 -4 -11 -10z"/>
<path d="M690 460 c0 -5 7 -10 16 -10 8 0 12 5 9 10 -3 6 -10 10 -16 10 -5 0
-9 -4 -9 -10z"/>
<path d="M420 392 c0 -12 133 -44 161 -39 23 4 23 4 -3 6 -14 0 -55 10 -90 21
-74 23 -68 22 -68 12z"/>
<path d="M1378 353 c6 -2 18 -2 25 0 6 3 1 5 -13 5 -14 0 -19 -2 -12 -5z"/>
<path d="M425 280 c3 -5 8 -10 11 -10 2 0 4 5 4 10 0 6 -5 10 -11 10 -5 0 -7
-4 -4 -10z"/>
<path d="M527 283 c-2 -4 -8 -22 -11 -40 -6 -26 -4 -34 13 -43 20 -10 20 -9
14 37 -6 52 -9 58 -16 46z"/>
<path d="M423 225 c0 -22 2 -30 4 -17 2 12 2 30 0 40 -3 9 -5 -1 -4 -23z"/>
<path d="M771 188 c1 -36 2 -39 9 -18 5 14 8 18 9 9 1 -9 10 -19 21 -22 15 -4
20 0 20 15 0 13 -5 18 -13 15 -9 -3 -13 3 -13 16 1 13 -6 23 -16 25 -15 3 -18
-4 -17 -40z"/>
<path d="M1108 178 c-2 -29 -2 -60 0 -70 4 -17 39 -31 54 -22 15 9 -2 118 -20
132 -26 20 -30 15 -34 -40z"/>
<path d="M692 170 c0 -14 2 -19 5 -12 2 6 2 18 0 25 -3 6 -5 1 -5 -13z"/>
<path d="M788 143 c-24 -6 -23 -23 2 -23 11 0 20 7 20 15 0 8 -1 14 -2 14 -2
-1 -11 -3 -20 -6z"/>
<path d="M1138 63 c6 -2 18 -2 25 0 6 3 1 5 -13 5 -14 0 -19 -2 -12 -5z"/>
</g>
</svg>
