<?xml version="1.0" standalone="no"?>
<!DOCTYPE svg PUBLIC "-//W3C//DTD SVG 20010904//EN"
 "http://www.w3.org/TR/2001/REC-SVG-20010904/DTD/svg10.dtd">
<svg version="1.0" xmlns="http://www.w3.org/2000/svg"
 width="100%" height="100%" viewBox="0 100 226 226" preserveAspectRatio="xMidYMid meet">

<g transform="translate(0.000000,426.000000) scale(0.100000,-0.100000)"
fill="#000000" stroke="none">
<path d="M1008 4221 c-10 -10 -18 -24 -18 -31 0 -8 7 -4 19 8 20 24 41 29 41
11 0 -6 -9 -13 -20 -16 -11 -3 -20 -11 -20 -19 0 -8 6 -11 17 -7 13 5 15 3 8
-13 -4 -10 -8 -28 -9 -38 0 -11 -11 -31 -23 -44 -27 -30 -29 -42 -6 -42 9 0
13 -3 10 -7 -4 -3 -2 -12 3 -18 6 -7 7 -33 3 -60 -5 -43 -7 -46 -15 -24 -5 13
-7 32 -4 43 6 22 -10 56 -26 56 -6 0 -26 -11 -44 -25 -18 -14 -36 -25 -40 -25
-14 0 -84 -52 -84 -62 0 -5 14 2 31 16 17 14 38 26 48 26 10 0 26 9 36 20 10
11 24 20 32 20 7 0 13 5 13 10 0 6 5 10 10 10 6 0 10 -11 10 -25 0 -18 -5 -25
-20 -25 -14 0 -18 -5 -14 -17 3 -10 8 -25 10 -33 5 -13 6 -13 15 0 9 13 10 13
6 0 -2 -8 -10 -14 -16 -12 -7 1 -11 -6 -9 -15 2 -12 -8 -22 -32 -31 l-35 -13
40 7 c22 3 54 5 70 5 17 -1 40 4 53 11 16 8 26 9 30 2 4 -6 30 -12 58 -13 50
-2 125 -18 93 -20 -15 -1 -16 -12 -13 -76 3 -43 0 -84 -6 -95 -16 -31 4 -24
28 10 28 37 41 38 34 4 -3 -16 1 -30 9 -35 10 -6 11 -9 1 -9 -7 0 -17 -11 -22
-25 -5 -14 -16 -25 -25 -25 -8 0 -15 -4 -15 -10 0 -5 6 -10 13 -10 7 0 8 -3 2
-8 -5 -4 -16 -18 -24 -32 -10 -18 -11 -25 -2 -28 7 -2 -1 -14 -19 -27 -28 -20
-41 -23 -130 -21 -85 2 -98 0 -87 -12 6 -8 -12 -3 -40 12 -29 14 -58 26 -66
26 -7 0 -26 14 -43 31 -29 30 -29 31 -25 132 2 56 5 130 5 165 l1 64 32 -4
c27 -3 32 0 36 20 3 17 1 20 -6 13 -6 -6 -23 -11 -38 -11 -48 0 -59 -9 -48
-37 5 -13 9 -32 9 -41 0 -15 -2 -15 -10 -2 -7 10 -9 -36 -6 -147 l5 -161 -55
-28 c-31 -16 -61 -35 -67 -44 -18 -24 -104 -83 -189 -130 -80 -43 -129 -91
-175 -168 -31 -53 -47 -122 -28 -122 8 0 11 8 8 18 -7 27 33 109 79 164 23 28
65 62 97 78 90 47 140 76 181 105 27 19 46 25 62 20 21 -6 22 -5 6 8 -22 18
-23 31 -2 23 8 -3 13 -2 9 3 -3 5 9 19 25 31 36 26 75 21 85 -10 3 -11 11 -20
16 -20 6 0 7 5 4 10 -11 18 4 10 29 -15 26 -26 50 -32 61 -15 3 6 -4 10 -18
10 -31 0 -55 25 -32 33 8 4 14 2 12 -4 -1 -6 12 -12 28 -14 39 -4 85 -22 85
-34 0 -5 7 -12 16 -15 14 -5 15 -4 4 9 -11 13 -9 15 11 14 13 0 58 4 99 9 76
9 102 8 57 -3 -18 -5 -23 -12 -20 -25 4 -17 6 -17 23 -2 11 9 25 17 32 18 7 1
22 5 33 9 13 4 8 -4 -15 -24 -19 -17 -40 -31 -48 -31 -7 0 -10 -4 -7 -10 11
-18 35 -10 65 23 20 22 27 38 23 52 -5 17 -4 18 11 6 22 -19 20 -28 -11 -57
-23 -20 -24 -23 -6 -15 12 6 29 19 39 28 17 17 18 17 11 0 -4 -10 -7 -25 -7
-33 0 -9 -4 -13 -9 -9 -15 9 -81 -35 -80 -53 0 -11 2 -12 6 -4 5 14 33 17 33
3 0 -42 -34 -46 -50 -7 -7 17 -9 15 -9 -16 -1 -20 -4 -43 -7 -51 -3 -9 6 -27
23 -44 62 -61 65 -60 -80 -46 -73 6 -133 12 -135 12 -8 2 4 81 12 81 12 0 -14
20 -26 20 -4 0 -6 -27 -4 -60 2 -48 -1 -60 -12 -60 -9 0 -13 -2 -11 -4 2 -2
72 -9 154 -15 169 -13 210 -23 243 -57 13 -14 27 -22 32 -19 7 4 23 -21 17
-28 -1 -2 10 -18 26 -36 15 -18 27 -44 27 -59 0 -25 -3 -23 -31 22 -17 26 -28
55 -25 63 3 8 2 12 -3 9 -4 -3 -30 5 -57 18 -27 13 -50 20 -52 16 -2 -5 -17
-4 -35 2 -76 24 -394 19 -461 -8 -18 -7 -18 -5 3 24 12 18 27 29 33 26 6 -4 8
-2 5 4 -5 6 9 13 35 17 61 10 100 50 68 70 -5 3 -8 0 -5 -7 6 -16 -19 -33 -63
-43 -28 -6 -33 -3 -41 18 -5 13 -8 36 -7 50 2 15 -1 24 -5 21 -5 -3 -14 8 -20
23 -31 80 -41 94 -66 104 -18 7 -30 6 -37 -1 -7 -7 -5 -10 7 -10 9 0 19 1 20
3 11 7 38 -31 49 -67 6 -22 15 -45 19 -51 9 -12 24 -112 16 -104 -4 3 -8 14
-10 25 -4 23 -45 104 -53 104 -3 0 -3 -10 1 -22 5 -20 4 -21 -5 -5 -6 9 -8 22
-5 27 8 14 -25 68 -44 72 -9 2 -45 0 -81 -3 l-65 -6 60 -1 c43 -2 67 -8 85
-22 l25 -20 -29 10 c-16 6 -31 9 -33 6 -3 -2 5 -7 17 -11 11 -4 27 -17 35 -29
19 -28 36 -114 23 -118 -5 -2 -10 -16 -12 -31 -1 -15 -5 -30 -9 -33 -3 -3 -3
-12 0 -20 3 -8 0 -14 -7 -14 -6 0 -8 5 -5 10 3 6 1 10 -6 10 -8 0 -7 5 2 16
12 15 11 16 -11 10 -40 -12 -61 -42 -49 -73 7 -19 6 -32 -6 -49 -8 -13 -18
-24 -21 -24 -3 0 2 10 10 21 15 22 12 49 -6 49 -5 0 -7 -4 -3 -9 3 -5 0 -20
-6 -34 -11 -24 -11 -24 -55 -8 -37 13 -46 14 -53 2 -7 -11 -10 -11 -15 0 -5
11 -7 11 -12 2 -8 -19 -24 -16 -24 5 0 10 -3 13 -8 6 -4 -6 -38 -16 -77 -22
-38 -5 -77 -13 -87 -17 -29 -11 -16 49 17 82 55 55 80 66 132 59 39 -5 44 -4
29 5 -11 7 -38 9 -67 6 -39 -5 -56 -14 -93 -51 -25 -25 -47 -53 -47 -63 -1
-10 -3 -28 -4 -40 -1 -13 4 -35 11 -49 8 -14 14 -35 14 -46 0 -39 -34 -124
-67 -168 -94 -128 -133 -211 -133 -288 0 -46 22 -110 46 -133 14 -13 32 -32
42 -41 9 -10 21 -18 26 -18 16 0 97 -71 91 -80 -3 -5 -1 -11 5 -15 5 -3 10 1
10 9 0 9 5 16 10 16 6 0 10 -3 10 -6 0 -10 -33 -79 -41 -84 -22 -17 -69 -108
-68 -134 0 -27 2 -28 10 -11 6 14 7 7 3 -23 -5 -36 -2 -48 17 -68 12 -13 28
-24 36 -24 7 0 13 -5 13 -10 0 -11 -83 -383 -120 -540 -33 -136 -89 -348 -116
-434 -27 -83 -26 -110 2 -99 11 4 15 3 10 -5 -4 -7 18 -22 59 -41 37 -17 69
-31 73 -31 4 0 13 -4 21 -9 12 -8 8 -15 -18 -40 -31 -29 -38 -59 -11 -53 7 2
3 -12 -9 -32 -17 -28 -22 -55 -26 -139 -5 -112 -5 -112 66 -165 41 -30 336
-86 519 -98 151 -9 549 -6 660 6 217 24 278 33 335 51 33 10 92 28 130 40 39
12 87 30 107 40 21 11 44 19 52 19 8 0 26 14 40 31 24 29 26 37 26 132 0 56
-5 120 -10 141 -9 41 -35 75 -47 62 -4 -4 -1 -11 6 -16 8 -5 11 -15 7 -26 -4
-10 -1 -21 5 -25 8 -4 13 -38 15 -86 2 -55 0 -68 -6 -45 -10 42 -14 46 -38 33
-12 -6 -27 -11 -34 -10 -7 0 4 7 25 16 31 12 37 20 37 44 0 16 -2 29 -4 29 -2
0 -24 -8 -48 -19 -55 -23 -119 -34 -136 -22 -9 5 16 16 77 31 50 12 91 26 91
31 0 12 -63 12 -76 0 -5 -5 -36 -16 -69 -26 -98 -28 -132 -44 -115 -55 13 -8
13 -10 -2 -10 -9 0 -18 4 -20 8 -1 5 -115 5 -253 0 -328 -10 -364 -14 -170
-17 123 -3 150 -5 116 -12 -64 -12 -64 -21 -1 -15 30 2 93 7 140 10 74 4 78 4
30 -4 -170 -28 -750 -40 -993 -20 -162 13 -234 25 -312 51 -93 30 -114 57 -87
106 15 28 122 77 136 63 5 -5 6 -10 2 -10 -5 0 -3 -7 4 -15 10 -12 10 -18 0
-30 -7 -8 -19 -15 -26 -15 -26 0 -14 -16 29 -40 39 -23 52 -24 192 -24 273 0
549 11 595 23 25 7 94 20 153 29 74 11 106 20 103 28 -2 6 13 20 35 29 21 10
41 27 45 39 6 21 45 61 86 90 73 51 210 -24 243 -131 4 -14 2 -23 -4 -23 -6 0
-11 9 -11 19 0 11 -4 23 -10 26 -5 3 -10 -3 -10 -14 0 -32 -27 -25 -39 9 -13
38 -22 39 -15 1 3 -16 1 -37 -5 -48 -6 -10 -11 -12 -11 -6 0 9 -6 7 -18 -5
-12 -11 -14 -20 -8 -24 6 -4 -10 -8 -36 -8 -26 0 -49 -4 -52 -9 -10 -15 -88
-21 -171 -12 -47 4 -82 4 -86 -1 -3 -5 -28 -13 -55 -17 -90 -15 256 -2 391 15
139 17 282 55 278 73 -4 14 3 14 28 1 13 -8 24 -8 37 0 15 10 14 10 -5 5 -12
-3 -24 -1 -28 5 -3 5 2 10 12 11 15 0 15 2 -3 9 -22 9 -37 34 -27 44 11 10 75
7 68 -4 -10 -17 14 -11 74 15 52 24 58 30 70 71 8 25 11 62 8 82 -8 47 -62
267 -122 497 -26 99 -55 212 -65 250 -9 39 -29 108 -43 155 -14 47 -35 130
-47 185 -12 55 -30 133 -41 172 -23 86 -25 153 -5 153 20 0 68 49 109 112 16
25 16 31 1 75 -9 26 -22 55 -30 64 -11 12 -13 34 -8 90 8 91 -7 152 -47 191
-16 16 -29 34 -29 39 0 6 -5 7 -10 4 -6 -3 -10 -1 -10 5 0 6 8 14 18 17 76 29
320 275 371 374 35 66 36 94 6 105 -25 10 -131 -49 -248 -136 -59 -44 -112
-78 -117 -75 -6 4 -8 11 -4 16 12 21 -30 114 -74 161 -42 45 -48 48 -96 48
-30 0 -60 -6 -72 -15 -17 -13 -13 -14 52 -15 62 0 75 -3 98 -25 19 -17 25 -31
21 -44 -3 -11 -1 -22 4 -26 7 -3 8 0 5 9 -3 9 -2 16 3 16 15 0 33 -48 38 -99
2 -25 2 -38 -1 -28 -7 22 -16 22 -31 -3 -12 -19 -15 -18 -53 20 -23 22 -38 45
-34 51 4 6 0 15 -7 20 -12 8 -12 11 1 19 8 5 20 11 25 13 6 3 7 7 4 11 -3 4
-19 2 -34 -4 -24 -9 -27 -8 -21 7 6 17 5 17 -8 1 -7 -10 -23 -18 -35 -18 -14
0 -21 -6 -21 -19 0 -37 -28 -32 -51 9 -13 22 -26 40 -31 40 -14 0 -13 -91 1
-100 5 -3 11 -20 14 -39 6 -29 5 -32 -8 -21 -10 9 -15 9 -15 1 0 -17 -25 -13
-54 10 -20 16 -25 17 -20 4 7 -18 73 -54 101 -56 13 -1 10 -3 -7 -9 -14 -4
-19 -8 -12 -9 7 -1 10 -5 7 -11 -4 -6 -17 -4 -35 5 -41 21 -45 19 -13 -10 15
-13 23 -25 17 -25 -18 0 -57 47 -45 55 6 3 9 11 5 16 -3 5 -10 7 -15 4 -5 -4
-9 -1 -9 4 0 6 -9 20 -20 31 -15 15 -20 33 -20 75 0 72 22 123 70 160 36 28
52 55 32 55 -5 0 -15 12 -23 26 -7 15 -40 44 -73 66 -46 30 -61 36 -69 26 -6
-9 -7 -7 -3 6 4 11 -1 41 -10 68 -14 44 -14 53 -1 86 11 27 14 67 12 147 -2
61 -4 124 -4 142 -1 46 -30 51 -71 13 -36 -33 -50 -38 -50 -15 0 8 -4 15 -10
15 -5 0 -10 15 -10 34 0 58 -16 86 -47 85 -16 0 -22 -3 -15 -6 9 -3 7 -12 -8
-33 -11 -15 -24 -45 -28 -66 l-9 -39 -4 52 c-2 28 0 51 5 50 5 -1 11 4 14 12
2 8 0 11 -5 8 -5 -3 -10 -1 -10 6 -10 200 -17 238 -47 236 -6 0 -19 -8 -28
-18z m42 -156 c0 -16 -6 -25 -15 -25 -15 0 -21 31 -8 43 13 14 23 6 23 -18z
m-3 -60 c9 -24 -1 -27 -15 -5 -8 13 -8 20 -2 20 6 0 13 -7 17 -15z m120 -56
l-4 -34 -1 38 c-1 26 -6 36 -14 31 -7 -5 -8 -3 -3 5 13 21 27 -4 22 -40z m-25
-34 c-4 -21 -29 -42 -39 -32 -2 2 0 19 4 38 l7 34 7 -30 7 -30 1 35 c1 23 4
30 10 22 4 -7 6 -24 3 -37z m-162 25 c0 -5 -5 -10 -11 -10 -5 0 -7 5 -4 10 3
6 8 10 11 10 2 0 4 -4 4 -10z m57 -42 c-3 -8 -6 -5 -6 6 -1 11 2 17 5 13 3 -3
4 -12 1 -19z m254 -62 c-25 -26 -27 -38 -6 -30 11 5 13 2 9 -10 -3 -9 -10 -16
-15 -16 -5 0 -9 -12 -9 -27 0 -16 -9 -39 -20 -53 l-20 -25 15 38 c8 20 13 48
9 61 -4 15 3 35 20 61 14 21 27 43 27 49 1 6 3 3 6 -7 3 -11 -4 -29 -16 -41z
m-21 19 c-7 -8 -17 -12 -22 -9 -6 4 -5 10 3 15 22 14 33 10 19 -6z m0 -310
c-7 -9 -15 -13 -18 -10 -3 2 1 11 8 20 7 9 15 13 18 10 3 -2 -1 -11 -8 -20z
m27 -42 c-3 -10 -5 -4 -5 12 0 17 2 24 5 18 2 -7 2 -21 0 -30z m-239 -90 c-10
-2 -28 -2 -40 0 -13 2 -5 4 17 4 22 1 32 -1 23 -4z m286 -8 c3 -8 1 -15 -3
-15 -5 0 -11 7 -15 15 -3 8 -1 15 3 15 5 0 11 -7 15 -15z m49 -2 c3 -5 2 -15
-2 -23 -4 -12 -14 -14 -36 -9 -23 5 -25 7 -7 8 12 0 21 4 21 9 -3 14 1 22 10
22 6 0 12 -3 14 -7z m64 -58 c6 -14 7 -27 2 -31 -5 -3 -9 0 -9 5 0 6 -5 11
-11 11 -5 0 -8 -4 -5 -9 5 -8 -64 -24 -72 -16 -9 9 11 25 32 25 25 0 51 22 39
33 -3 4 -2 7 3 7 5 0 14 -11 21 -25z m-87 0 c0 -2 -15 -21 -32 -42 -31 -35
-31 -36 -7 -21 26 16 27 16 27 -5 0 -20 -5 -22 -39 -19 -26 3 -43 11 -50 23
-7 15 -6 19 5 19 8 0 28 11 43 25 25 22 53 33 53 20z m-124 -155 l6 -35 -20
25 c-15 18 -17 27 -9 32 9 6 9 8 0 8 -7 0 -13 8 -13 17 0 30 29 -8 36 -47z
m79 41 c-19 -17 -55 -23 -55 -9 0 8 13 15 32 16 20 2 29 -1 23 -7z m861 -76
c-40 -59 -84 -105 -98 -105 -5 0 -8 -6 -8 -12 -1 -15 -180 -148 -180 -133 0 2
-65 -45 -145 -103 -159 -118 -256 -186 -267 -188 -5 -1 -11 -2 -15 -3 -5 -1 0
-6 10 -12 14 -8 26 -5 55 17 20 15 39 31 42 34 3 3 21 17 40 30 19 13 65 48
102 78 40 32 72 51 79 46 8 -4 9 -3 5 4 -4 6 5 17 21 26 16 7 37 23 47 35 10
11 22 18 27 16 4 -3 13 0 21 7 26 25 78 58 77 51 -1 -21 -202 -166 -213 -155
-4 4 -12 -1 -17 -10 -5 -9 -55 -49 -111 -89 -57 -40 -124 -93 -149 -116 -30
-28 -52 -41 -62 -37 -17 6 -166 -70 -208 -106 -19 -17 -13 -15 26 6 28 15 57
33 66 41 8 7 21 13 27 13 6 0 28 9 48 20 20 12 39 19 41 16 7 -7 -87 -66 -104
-66 -7 0 -13 -4 -13 -10 0 -5 -9 -10 -21 -10 -11 0 -41 -14 -66 -32 -25 -17
-43 -26 -39 -20 13 21 -2 13 -91 -51 -111 -79 -147 -102 -139 -88 4 6 41 34
82 61 41 28 74 53 74 56 0 7 -9 1 -97 -58 -40 -26 -76 -54 -80 -61 -9 -14
-108 -77 -122 -77 -5 0 -14 -7 -21 -15 -7 -8 -17 -12 -22 -9 -6 4 9 19 33 35
58 37 124 95 89 78 -13 -7 -49 -28 -78 -47 -61 -38 -47 -40 -161 25 -10 6 23
33 40 33 11 0 19 5 19 10 0 6 3 9 8 8 12 -2 46 14 75 38 15 13 69 46 120 75
50 29 148 89 217 134 69 45 147 95 173 111 26 16 67 43 91 61 24 17 139 97
257 176 118 79 264 182 324 227 189 143 272 162 191 45z m-831 15 c3 -5 1 -10
-6 -10 -7 0 -2 -8 9 -19 25 -21 28 -40 10 -63 -12 -14 -17 -14 -53 3 -22 11
-32 17 -23 15 12 -4 15 -1 11 10 -3 7 -1 14 5 14 5 0 12 14 16 30 6 30 19 39
31 20z m312 -67 c-3 -10 -5 -4 -5 12 0 17 2 24 5 18 2 -7 2 -21 0 -30z m-99
-49 c-3 -14 -5 -12 -10 9 -3 19 -2 25 4 19 6 -6 8 -18 6 -28z m82 31 c0 -7
-30 -13 -34 -7 -3 4 4 9 15 9 10 1 19 0 19 -2z m90 -49 c0 -11 -19 -15 -25 -6
-3 5 1 10 9 10 9 0 16 -2 16 -4z m-500 -33 c76 -21 124 -47 144 -78 16 -25 16
-25 -1 -16 -125 66 -233 88 -407 82 -74 -2 -28 -12 76 -17 131 -6 190 -13 183
-24 -2 -4 3 -14 13 -21 15 -13 16 -12 3 4 -7 9 -9 17 -4 17 6 0 19 -8 31 -17
54 -46 62 -52 62 -46 0 19 46 -39 67 -86 24 -52 21 -83 -7 -66 -9 6 -9 10 1
16 10 6 11 9 2 9 -8 0 -13 13 -13 29 0 17 -10 42 -24 58 l-25 28 15 -43 c12
-37 12 -47 0 -76 -14 -33 -72 -86 -95 -86 -6 0 -14 -7 -17 -15 -4 -8 -11 -15
-16 -15 -7 0 -7 4 -1 13 11 14 24 47 19 47 -2 0 -13 -16 -25 -36 -12 -19 -26
-32 -32 -29 -6 4 -13 -2 -16 -13 -2 -11 -14 -23 -25 -25 -19 -5 -19 -5 -3 13
13 14 14 23 6 37 -10 17 -10 16 -11 -4 0 -13 -8 -24 -20 -28 -11 -3 -20 -12
-20 -20 0 -7 -7 -16 -16 -19 -15 -6 -15 -4 -3 10 12 15 11 16 -11 9 -14 -5
-41 -12 -60 -16 l-35 -7 45 -2 c25 -1 41 -3 35 -5 -5 -2 -37 -11 -70 -21 -33
-9 -65 -21 -71 -25 -6 -5 -20 -7 -32 -4 -12 2 -24 0 -27 -6 -8 -11 -125 -12
-125 0 0 5 19 12 43 16 l42 8 -40 7 c-22 4 -32 8 -23 9 9 0 20 6 24 12 5 8 -4
10 -30 7 -20 -2 -36 -3 -36 -2 0 1 -3 10 -7 20 -5 12 -3 15 6 9 10 -6 11 -3 1
15 -9 17 -8 28 5 57 13 28 14 37 4 47 -9 8 -11 7 -6 -6 4 -10 2 -18 -3 -18
-15 0 -12 30 5 46 8 9 15 28 15 44 0 16 5 32 10 35 6 4 7 11 4 17 -4 5 -1 21
7 34 8 16 15 20 20 13 4 -8 9 -4 14 10 3 11 12 21 18 21 7 0 23 10 37 21 l25
20 -34 -16 c-19 -10 -30 -12 -26 -5 4 7 21 19 39 27 23 10 25 12 6 8 -78 -20
-77 -20 -56 4 11 11 15 21 10 22 -28 3 74 21 156 28 116 9 207 4 280 -16z
m-509 -6 c-10 -9 -11 -8 -5 6 3 10 9 15 12 12 3 -3 0 -11 -7 -18z m-24 -28
c-1 -13 -9 -19 -27 -19 l-25 -1 24 -13 c20 -11 21 -14 6 -19 -29 -12 -53 37
-40 80 7 21 64 -5 62 -28z m1028 31 c-3 -5 -11 -10 -16 -10 -6 0 -7 5 -4 10 3
6 11 10 16 10 6 0 7 -4 4 -10z m-38 -6 c-3 -3 -12 -4 -19 -1 -8 3 -5 6 6 6 11
1 17 -2 13 -5z m-322 -94 c3 -5 1 -10 -4 -10 -6 0 -11 5 -11 10 0 6 2 10 4 10
3 0 8 -4 11 -10z m-1000 -10 c-45 -11 -77 -11 -70 0 3 6 27 9 53 9 42 -1 44
-2 17 -9z m185 0 c-8 -5 -22 -9 -30 -9 -10 0 -8 3 5 9 27 12 43 12 25 0z
m-275 -21 c11 -16 1 -19 -13 -3 -7 8 -8 14 -3 14 5 0 13 -5 16 -11z m429 -13
c-3 -9 -10 -16 -15 -16 -5 0 -4 9 3 20 14 22 21 20 12 -4z m-271 -12 c44 -10
40 -22 -6 -17 -23 3 -58 0 -77 -5 l-35 -10 35 -3 c19 -1 42 -3 50 -4 8 -1 29
-3 46 -4 18 0 42 -10 55 -21 l24 -20 -28 10 c-16 5 -29 10 -30 10 -1 0 -2 -14
-1 -30 1 -24 10 -37 42 -61 45 -33 55 -47 20 -28 -18 10 -24 8 -35 -7 -7 -10
-13 -14 -13 -10 0 4 -5 4 -10 1 -8 -5 -7 -12 2 -23 10 -14 10 -15 -2 -4 -8 6
-23 13 -34 13 -18 1 -18 2 -3 6 9 2 15 8 12 13 -3 5 -13 6 -22 3 -14 -5 -15
-1 -9 28 l6 34 -18 -30 c-13 -21 -16 -32 -8 -37 6 -4 -14 -7 -46 -7 -31 1 -64
-3 -73 -8 -12 -7 3 -10 54 -11 49 -1 89 -9 127 -24 48 -20 58 -29 75 -68 l20
-45 -34 33 c-42 41 -83 53 -179 53 -90 0 -147 -20 -63 -21 141 -3 173 -8 213
-34 54 -34 60 -46 23 -46 -17 0 -31 4 -31 9 0 28 -150 32 -169 4 -3 -5 -17
-17 -31 -26 -17 -12 -20 -17 -9 -17 9 0 28 9 43 21 27 21 61 22 139 3 49 -12
28 -19 -55 -19 -98 -1 -152 -21 -216 -82 -23 -22 -44 -37 -47 -35 -9 9 6 -61
21 -102 8 -21 13 -41 10 -43 -2 -2 -10 12 -17 31 -7 20 -16 36 -21 36 -4 0 -5
-6 -2 -13 3 -8 -2 -14 -10 -14 -8 0 -13 4 -10 9 4 5 -2 15 -12 23 -16 11 -19
26 -17 99 1 54 8 97 18 115 24 47 75 120 93 134 36 27 82 142 82 205 0 22 5
32 15 32 8 0 15 4 15 9 0 14 31 18 70 9 19 -5 47 -11 63 -14z m62 6 c27 -7 27
-8 5 -8 -14 0 -36 4 -50 8 -20 6 -21 8 -5 8 11 0 34 -4 50 -8z m5 -30 c0 -5
-5 -10 -11 -10 -5 0 -7 5 -4 10 3 6 8 10 11 10 2 0 4 -4 4 -10z m1020 6 c0 -2
-8 -10 -17 -17 -16 -13 -17 -12 -4 4 13 16 21 21 21 13z m-57 -37 c-4 -15 -8
-17 -14 -8 -8 14 -3 29 11 29 4 0 6 -9 3 -21z m-766 -41 c-3 -8 -6 -5 -6 6 -1
11 2 17 5 13 3 -3 4 -12 1 -19z m-152 -57 c-3 -2 -13 3 -23 12 -10 10 -24 17
-30 17 -7 0 -12 9 -12 21 0 19 3 17 35 -12 19 -18 32 -35 30 -38z m5 59 c0 -5
-2 -10 -4 -10 -3 0 -8 5 -11 10 -3 6 -1 10 4 10 6 0 11 -4 11 -10z m54 -5 c3
-8 1 -15 -4 -15 -6 0 -10 7 -10 15 0 8 2 15 4 15 2 0 6 -7 10 -15z m746 -50
c0 -2 -10 -10 -22 -16 -21 -11 -22 -11 -9 4 13 16 31 23 31 12z m-756 -31 c8
-21 -7 -17 -21 6 -11 16 -10 18 1 14 8 -3 17 -12 20 -20z m1283 -25 c28 -81 7
-187 -27 -139 -19 26 -30 25 -30 -2 0 -18 -2 -20 -9 -8 -6 8 -7 18 -5 22 3 4
0 8 -5 8 -6 0 -11 -4 -11 -10 0 -5 -9 -10 -20 -10 -11 0 -20 -4 -20 -10 0 -5
-8 -10 -17 -10 -13 0 -14 3 -5 12 17 17 15 28 -5 21 -11 -4 -14 -3 -9 5 5 8
31 11 72 10 60 -3 64 -2 64 19 0 12 -4 24 -10 28 -5 3 -7 12 -4 20 3 7 1 22
-5 33 -8 15 -8 22 2 25 9 4 8 8 -3 16 -12 9 -10 10 10 8 18 -3 28 -13 37 -38z
m-587 18 c-21 -20 -90 -60 -90 -53 0 7 90 66 99 66 3 0 -1 -6 -9 -13z m309
-63 c-41 -43 -71 -62 -63 -39 4 8 12 15 18 15 7 0 25 14 41 30 16 17 31 30 34
30 3 0 -11 -16 -30 -36z m-962 -76 c-2 -13 -4 -5 -4 17 -1 22 1 32 4 23 2 -10
2 -28 0 -40z m483 42 c0 -5 -12 -10 -27 -9 l-28 1 25 8 c14 4 26 8 28 9 1 1 2
-3 2 -9z m-130 -24 c0 -2 -7 -7 -16 -10 -8 -3 -12 -2 -9 4 6 10 25 14 25 6z
m515 -16 c-6 -10 -88 -56 -130 -73 -34 -14 -4 9 60 46 63 37 80 44 70 27z
m-799 -26 c-3 -8 1 -14 10 -14 8 0 12 -5 8 -11 -4 -8 -9 -8 -17 0 -13 13 -17
52 -5 45 5 -4 7 -12 4 -20z m964 11 c0 -8 -4 -15 -10 -15 -5 0 -7 7 -4 15 4 8
8 15 10 15 2 0 4 -7 4 -15z m-727 -2 c-7 -2 -19 -2 -25 0 -7 3 -2 5 12 5 14 0
19 -2 13 -5z m87 -18 c-7 -8 -16 -15 -21 -15 -5 0 -1 8 9 18 20 22 31 19 12
-3z m-340 -48 c-4 -5 -18 -7 -31 -5 -16 2 -23 10 -24 28 -1 14 2 28 8 31 13 9
58 -43 47 -54z m188 38 c4 -3 0 -10 -8 -15 -11 -7 -11 -10 -2 -10 7 0 15 7 18
15 4 10 20 15 48 15 49 -1 38 -9 -49 -39 -70 -24 -123 -32 -131 -20 -3 5 12 9
34 9 21 0 42 3 45 7 8 7 -38 33 -62 34 -9 1 -6 4 9 9 26 9 88 6 98 -5z m-291
-31 c-3 -3 -12 -4 -19 -1 -8 3 -5 6 6 6 11 1 17 -2 13 -5z m347 -13 c-17 -10
-40 -22 -52 -25 -12 -4 -22 -11 -22 -16 0 -12 -56 -41 -64 -33 -3 4 -6 -1 -6
-10 0 -9 -10 -22 -22 -28 -23 -12 -23 -12 -4 10 l19 21 -46 -6 c-43 -6 -47 -5
-47 14 0 17 7 21 50 24 28 1 50 0 50 -4 0 -15 38 -8 51 9 13 15 11 16 -14 9
-19 -4 -26 -3 -22 4 3 5 14 10 23 10 9 1 40 9 67 20 65 24 77 24 39 1z m887 5
c37 -5 85 -32 93 -51 3 -9 5 -35 5 -58 -1 -25 -3 -32 -6 -17 -9 56 -14 70 -28
70 -8 0 -19 8 -24 18 -12 19 -14 12 -5 -12 3 -9 12 -16 19 -16 21 0 24 -11 15
-55 -4 -22 -8 -30 -9 -18 -1 22 -21 44 -21 23 0 -6 -4 -8 -10 -5 -18 11 -12
38 8 31 14 -5 14 -4 -2 9 -11 8 -24 21 -29 27 -10 15 -4 -37 8 -64 15 -37 -11
-16 -31 25 -15 30 -28 43 -45 44 -23 2 -23 2 -2 -5 18 -6 20 -9 9 -24 -7 -10
-16 -15 -19 -12 -3 3 -4 -1 -3 -10 1 -8 5 -18 8 -22 10 -10 -15 -44 -32 -43
-10 0 -11 2 -2 6 15 6 16 49 0 59 -6 4 -8 3 -5 -3 9 -14 -14 -40 -43 -48 -20
-5 -22 -4 -10 5 13 10 12 11 -3 6 -10 -3 -34 -6 -53 -6 -19 0 -34 -4 -34 -10
0 -5 14 -7 33 -3 28 5 30 4 17 -9 -8 -9 -34 -18 -56 -22 l-41 -6 -13 46 c-10
34 -10 54 -2 82 10 33 10 35 -3 18 -19 -25 -20 -132 -2 -139 6 -3 0 -6 -15 -6
-14 -1 -28 -7 -31 -13 -4 -15 -37 43 -37 67 0 8 -4 15 -10 15 -13 0 -13 -26 0
-50 7 -13 6 -19 -6 -24 -9 -4 -12 -2 -8 5 4 7 0 9 -14 5 -26 -9 -36 7 -22 36
10 21 10 21 -3 6 -8 -10 -17 -15 -20 -11 -4 3 -7 -1 -7 -10 0 -10 -6 -17 -12
-17 -8 0 -5 -7 6 -15 19 -15 19 -15 -2 -15 -12 0 -22 5 -22 10 0 6 -9 10 -20
10 -18 0 -26 16 -21 43 1 5 -3 6 -9 2 -5 -3 -10 -1 -10 4 0 6 4 11 9 11 5 0
14 14 21 30 14 33 64 75 79 65 5 -3 12 -1 15 3 3 5 17 7 31 4 l26 -5 -28 -30
-28 -31 38 27 c20 16 52 35 70 43 17 8 43 22 57 30 20 12 48 14 145 9 66 -3
132 -7 146 -9z m-1287 -27 c24 -19 38 -48 16 -34 -5 3 -10 1 -10 -4 0 -6 8
-11 18 -11 9 0 24 -5 32 -11 11 -8 1 -9 -35 -4 -27 4 -54 11 -59 16 -6 5 -17
9 -25 8 -11 0 -10 -3 4 -8 18 -7 16 -9 -12 -15 -19 -5 -35 -15 -38 -27 -4 -11
-9 -18 -12 -15 -12 12 -83 -96 -83 -128 0 -8 -4 -18 -10 -21 -6 -4 -8 7 -5 27
4 25 3 28 -4 13 -10 -24 -32 -42 -46 -40 -34 5 -83 37 -89 57 -23 87 24 167
119 205 17 6 71 12 121 12 78 1 95 -2 118 -20z m811 11 c-3 -5 -14 -10 -24
-10 -17 0 -95 -50 -116 -74 -33 -38 -239 -186 -260 -186 -4 0 -34 -18 -66 -40
-64 -44 -87 -52 -48 -18 13 12 34 30 45 40 19 17 37 24 67 27 5 1 6 5 2 10 -3
5 0 13 6 17 8 4 9 3 5 -4 -13 -22 5 -12 104 54 107 71 133 94 107 94 -8 0 -20
-7 -27 -16 -8 -8 -55 -38 -106 -65 -51 -27 -98 -56 -104 -64 -7 -8 -16 -15
-21 -15 -5 0 -33 -16 -64 -35 -30 -20 -55 -32 -55 -27 0 11 162 122 177 122 5
0 32 14 59 32 149 95 242 149 272 158 38 12 54 12 47 0z m115 0 c-8 -5 -19
-10 -25 -10 -5 0 -3 5 5 10 8 5 20 10 25 10 6 0 3 -5 -5 -10z m-943 -91 c59
-24 72 -32 66 -42 -4 -6 0 -8 11 -4 11 4 15 3 11 -4 -4 -6 -13 -8 -20 -5 -16
6 -48 -27 -38 -39 5 -4 3 -5 -3 -2 -7 4 -19 -4 -28 -17 -8 -14 -25 -26 -37
-28 -21 -3 -22 -4 -4 -18 11 -9 16 -10 11 -2 -4 6 -2 12 3 12 6 0 20 9 31 20
16 16 33 20 83 19 34 0 69 -3 78 -7 28 -12 72 -52 65 -59 -3 -4 -21 7 -38 23
l-32 29 18 -28 c10 -16 15 -34 13 -42 -3 -7 5 -22 19 -34 19 -17 23 -27 18
-49 -4 -15 -11 -28 -16 -30 -11 -5 -10 -22 1 -22 5 0 17 7 25 16 9 8 16 11 16
5 0 -6 -10 -17 -23 -26 -32 -20 -221 -13 -246 9 -10 9 -23 16 -29 16 -6 0 -18
10 -26 22 -13 18 -16 19 -16 5 0 -18 63 -62 104 -73 14 -3 26 -10 26 -14 0 -4
12 -5 28 -2 23 4 25 3 15 -9 -10 -12 -8 -15 7 -15 10 0 18 4 17 9 -4 22 21 15
31 -8 15 -32 15 -35 1 -35 -5 0 -7 5 -4 10 3 6 1 10 -5 10 -6 0 -9 -8 -6 -18
4 -10 -1 -27 -10 -38 -11 -13 -14 -14 -11 -3 4 11 -1 15 -17 15 -15 -1 -20 4
-19 19 1 11 0 14 -3 8 -4 -9 -11 -10 -22 -4 -17 9 -24 11 -42 11 -6 0 -9 3 -9
8 3 19 -2 32 -12 32 -8 0 -7 -6 2 -17 13 -15 11 -16 -16 -9 -16 4 -42 13 -57
21 -16 7 -28 10 -28 5 0 -10 96 -55 138 -64 17 -4 32 -12 32 -17 0 -6 -8 -6
-19 1 -32 16 -38 11 -11 -10 16 -12 34 -17 50 -14 21 4 19 1 -10 -15 -39 -22
-54 -26 -45 -11 4 6 -6 10 -22 10 -15 0 -35 4 -43 10 -12 8 -12 10 3 16 10 4
23 2 30 -5 6 -6 18 -11 27 -11 8 1 3 7 -13 16 -16 9 -37 12 -49 8 -12 -4 -24
-1 -30 7 -7 10 -8 6 -5 -13 l4 -27 -28 22 c-16 12 -34 37 -41 55 -10 27 -28
44 -28 26 0 -11 23 -49 42 -71 12 -12 17 -27 13 -34 -6 -9 -11 -8 -20 5 -12
15 -13 15 -18 -4 -3 -11 -1 -23 5 -26 5 -4 7 -20 4 -36 -3 -16 -2 -27 3 -24
12 8 34 -21 28 -36 -4 -8 -6 -7 -6 5 -2 36 -18 15 -19 -25 0 -24 -8 -70 -16
-103 -9 -33 -18 -85 -21 -115 -2 -30 -2 -44 1 -30 18 91 37 166 45 179 8 13 9
12 5 -4 -4 -17 -52 -264 -99 -515 -8 -41 -31 -137 -51 -213 -21 -77 -35 -141
-32 -144 3 -3 8 8 11 23 4 16 10 38 15 49 14 31 0 -65 -15 -101 -12 -29 -14
-30 -66 -27 -70 5 -80 9 -74 30 3 10 -1 5 -9 -12 -13 -28 -13 -30 7 -35 15 -4
18 -8 10 -13 -7 -4 -24 -5 -38 -1 -19 5 -24 11 -19 23 23 54 55 174 115 431
17 74 48 209 69 300 22 91 47 206 56 255 18 95 46 145 59 105 4 -11 11 -18 16
-14 5 3 7 10 4 15 -4 5 -1 9 5 9 13 0 -14 44 -53 87 l-29 31 21 21 c21 21 29
47 11 36 -5 -3 -10 -13 -10 -21 0 -8 -4 -14 -10 -14 -18 0 -42 -73 -37 -112 3
-21 1 -38 -3 -38 -15 0 -23 22 -22 59 1 19 -4 39 -11 43 -9 5 -7 16 8 44 11
20 25 39 32 41 15 6 63 101 63 124 0 19 41 19 63 0 11 -9 17 -9 17 -2 0 6 -9
16 -20 23 -11 7 -20 20 -19 28 0 10 2 11 6 3 2 -7 9 -13 15 -13 6 0 3 9 -7 20
-25 28 -13 84 25 111 16 12 34 34 40 50 10 24 22 33 52 38 4 0 20 -4 35 -10z
m213 -19 c13 -8 13 -10 -2 -10 -9 0 -25 -3 -35 -7 -16 -6 -16 -5 -4 10 16 20
20 20 41 7z m501 -63 c-10 -9 -11 -8 -5 6 3 10 9 15 12 12 3 -3 0 -11 -7 -18z
m-611 2 c0 -4 -10 -6 -21 -4 -32 6 -34 13 -4 13 14 0 25 -4 25 -9z m1258 -7
c14 12 14 10 3 -10 -13 -25 -31 -21 -30 6 0 11 2 13 6 4 4 -10 8 -10 21 0z
m-593 -21 c2 -4 -9 -5 -25 -3 -17 2 -28 8 -25 12 6 9 43 2 50 -9z m92 -7 c-3
-3 -12 -4 -19 -1 -8 3 -5 6 6 6 11 1 17 -2 13 -5z m283 2 c0 -2 -18 -6 -40 -8
-22 -2 -40 0 -40 4 0 5 18 8 40 8 22 0 40 -2 40 -4z m157 -28 c-3 -7 -5 -2 -5
12 0 14 2 19 5 13 2 -7 2 -19 0 -25z m-142 -17 c-11 -5 -51 -5 -90 -1 l-70 7
90 1 c54 0 82 -2 70 -7z m-1450 -28 l18 -28 -21 19 c-12 11 -22 23 -22 28 0
14 7 9 25 -19z m1528 0 c-7 -2 -19 -2 -25 0 -7 3 -2 5 12 5 14 0 19 -2 13 -5z
m-1456 -19 c-3 -3 -12 -4 -19 -1 -8 3 -5 6 6 6 11 1 17 -2 13 -5z m1522 -106
c33 -144 95 -395 126 -508 30 -108 88 -336 115 -455 26 -108 69 -286 76 -307
3 -12 0 -18 -10 -18 -9 0 -16 8 -16 18 0 24 -41 144 -47 138 -3 -2 4 -32 16
-65 12 -34 21 -70 21 -81 0 -32 -18 -23 -25 13 -4 17 -20 82 -35 142 -16 61
-38 146 -49 190 -11 44 -20 73 -20 65 -1 -21 31 -168 69 -313 16 -65 30 -121
30 -124 0 -15 -14 10 -17 29 -2 12 -8 27 -13 33 -19 23 -72 220 -72 264 1 25
-3 50 -7 55 -5 6 -11 29 -13 51 -3 22 -21 108 -41 191 -20 82 -41 181 -47 220
-5 38 -24 134 -40 214 -66 316 -67 328 -51 344 8 8 17 13 21 11 3 -2 17 -50
29 -107z m-114 92 c3 -6 -1 -7 -9 -4 -18 7 -21 14 -7 14 6 0 13 -4 16 -10z
m-930 -35 c-4 -38 -15 -43 -15 -7 0 18 4 32 9 32 5 0 8 -11 6 -25z m256 -44
c-8 -5 -20 -7 -28 -4 -21 8 -15 13 15 13 20 0 23 -3 13 -9z m248 5 c-2 -2 -56
-6 -119 -9 -71 -4 -107 -3 -95 3 19 8 223 14 214 6z m-489 -46 c0 -5 -5 -10
-11 -10 -5 0 -7 5 -4 10 3 6 8 10 11 10 2 0 4 -4 4 -10z m772 -25 c-2 -19 -8
-35 -13 -35 -5 0 -10 -15 -10 -32 l-1 -33 -8 30 c-5 21 -8 24 -10 10 -1 -14
-3 -16 -7 -5 -15 46 -15 46 -23 25 -8 -18 -9 -18 -9 -2 -1 10 -6 15 -11 12 -6
-4 -8 -11 -5 -16 4 -5 2 -9 -4 -9 -5 0 -12 6 -14 13 -3 7 -6 5 -6 -5 -1 -10
-6 -18 -12 -18 -5 0 -8 4 -4 9 3 5 1 12 -5 16 -5 3 -10 -1 -10 -9 0 -8 -8 -20
-17 -26 -15 -8 -13 -9 10 -4 31 7 117 -3 117 -14 0 -4 -30 -9 -67 -10 -37 -2
-71 -5 -74 -8 -4 -2 -11 21 -14 51 -5 34 -12 55 -20 55 -10 0 -11 -10 -4 -40
9 -40 -3 -80 -25 -80 -6 0 -5 5 2 12 7 7 12 17 12 23 -1 5 -9 0 -20 -13 -17
-21 -19 -21 -29 -5 -6 11 -11 13 -11 5 0 -10 -5 -10 -20 -2 -16 8 -24 8 -35
-4 -20 -19 -19 -30 1 -22 19 7 54 -1 54 -14 0 -4 -8 -7 -17 -5 -75 15 -75 15
-69 39 4 15 1 26 -8 29 -7 3 -16 16 -19 29 l-6 23 20 -25 21 -25 -6 33 c-3 19
-2 31 4 27 5 -3 12 1 17 9 6 11 34 17 93 21 47 4 114 10 150 14 120 15 117 16
112 -24z m195 13 c-3 -8 -6 -5 -6 6 -1 11 2 17 5 13 3 -3 4 -12 1 -19z m-599
-21 c-21 -5 -38 -15 -38 -22 0 -15 -22 -25 -56 -25 -13 0 -24 -5 -24 -11 0 -7
14 -8 40 -4 33 6 39 4 34 -8 -3 -8 -16 -18 -29 -21 -13 -3 -27 -16 -30 -27 -7
-20 -8 -20 -26 7 -17 27 -19 27 -19 7 0 -12 -5 -25 -12 -29 -8 -5 -9 2 -4 26
8 44 15 49 32 26 8 -11 14 -15 14 -9 0 6 -7 16 -15 23 -8 7 -15 16 -15 21 0 5
7 6 15 3 8 -4 15 -1 15 5 0 6 -8 11 -17 12 -12 0 -13 2 -5 6 7 3 19 -1 27 -7
9 -7 15 -8 15 -2 0 5 -7 13 -16 16 -34 13 1 25 74 24 69 -1 73 -2 40 -11z
m-468 -18 c0 -6 -4 -7 -10 -4 -5 3 -10 11 -10 16 0 6 5 7 10 4 6 -3 10 -11 10
-16z m318 14 c-11 -3 -18 -14 -18 -28 0 -13 -10 -29 -24 -39 l-25 -16 15 28
c7 15 14 34 13 42 0 10 -2 11 -6 2 -2 -6 -10 -9 -15 -6 -7 5 -8 2 -3 -6 6 -10
4 -12 -8 -7 -10 3 -17 2 -17 -4 0 -6 -4 -7 -10 -4 -5 3 -10 -1 -10 -9 0 -8 5
-18 10 -21 6 -3 10 -1 10 4 0 6 5 11 12 11 9 0 9 -3 1 -11 -6 -6 -9 -19 -5
-28 5 -14 3 -14 -11 -3 -9 8 -19 22 -22 31 -3 10 -22 22 -43 28 l-37 10 52 2
c74 2 75 18 1 20 -34 1 -64 3 -66 6 -3 3 46 4 109 4 63 -1 106 -3 97 -6z m565
-71 c6 -29 5 -31 -8 -19 -8 8 -11 24 -8 36 7 27 8 25 16 -17z m204 -14 c-3 -8
-6 -5 -6 6 -1 11 2 17 5 13 3 -3 4 -12 1 -19z m-1495 -2 c7 4 8 2 4 -5 -4 -6
-13 -8 -19 -4 -7 4 -7 0 1 -10 9 -11 11 -21 4 -33 -8 -14 -10 -13 -16 9 -6 26
4 71 12 49 2 -7 9 -9 14 -6z m552 -11 c-4 -8 -8 -15 -10 -15 -2 0 -4 7 -4 15
0 8 4 15 10 15 5 0 7 -7 4 -15z m26 -4 c-5 -11 -15 -23 -22 -27 -7 -5 -8 -2
-3 7 21 37 44 55 25 20z m579 -15 c-2 -2 -17 -6 -34 -10 -22 -5 -26 -4 -15 4
14 9 59 15 49 6z m-1129 -26 c0 -5 -5 -10 -11 -10 -5 0 -7 5 -4 10 3 6 8 10
11 10 2 0 4 -4 4 -10z m105 0 c3 -5 1 -10 -4 -10 -6 0 -11 5 -11 10 0 6 2 10
4 10 3 0 8 -4 11 -10z m1384 -35 l0 -20 -9 20 c-5 11 -9 27 -9 35 -1 13 0 13
9 0 5 -8 9 -24 9 -35z m-983 16 c22 -6 57 -14 79 -18 40 -9 52 -31 32 -60 -4
-6 -3 -14 3 -18 5 -3 10 -39 10 -78 0 -87 -35 -203 -56 -186 -9 7 -12 27 -9
57 l4 47 -11 -44 c-9 -32 -8 -48 0 -62 10 -15 9 -17 -6 -12 -16 6 -16 5 -1
-13 31 -37 32 -49 2 -21 -16 15 -32 25 -35 21 -4 -3 -18 2 -31 11 -31 20 -123
30 -156 18 -18 -7 -9 -9 40 -9 106 1 164 -48 169 -144 4 -63 1 -80 -10 -80 -6
0 -7 19 -4 48 4 35 3 43 -5 32 -6 -8 -11 -22 -11 -30 0 -8 -5 -31 -10 -50 -9
-31 -16 -37 -55 -48 -55 -15 -102 -15 -110 -2 -4 6 16 10 54 10 52 0 62 3 80
26 22 29 27 77 11 118 -9 24 -56 56 -82 56 -7 -1 1 -7 17 -14 43 -19 56 -39
57 -86 1 -58 -23 -79 -103 -90 -53 -8 -66 -6 -81 7 -23 21 -24 99 -2 133 14
22 12 22 -10 -3 -20 -21 -26 -39 -26 -71 0 -52 28 -83 98 -108 27 -9 38 -17
26 -17 -11 -1 -40 8 -63 20 -48 23 -65 20 -26 -5 14 -9 25 -14 25 -10 0 4 6 1
13 -5 8 -6 31 -15 53 -21 38 -9 37 -10 -15 -5 -66 5 -95 23 -121 75 -11 22
-22 40 -25 40 -5 0 5 -31 15 -45 4 -5 11 -25 15 -43 3 -18 11 -30 16 -26 5 3
24 1 42 -5 41 -13 115 -16 147 -6 23 7 23 7 6 -11 -14 -13 -34 -18 -85 -18
-81 0 -146 28 -145 61 0 12 -3 20 -7 17 -18 -11 -30 39 -23 99 5 49 14 72 42
110 19 27 46 53 59 58 39 14 99 11 153 -10 27 -11 50 -15 50 -11 0 21 -102 42
-181 37 l-79 -4 1 26 c0 23 1 24 9 6 7 -15 8 -11 8 20 -1 22 7 66 16 99 9 32
15 60 12 63 -10 10 25 64 36 57 6 -4 8 -3 5 3 -4 6 -2 25 4 43 8 23 14 28 20
19 6 -11 9 -10 15 4 3 9 14 17 23 17 12 0 13 2 3 9 -11 7 -10 10 3 15 9 3 26
6 36 6 13 0 18 4 13 12 -5 7 -2 9 8 5 9 -3 33 -10 54 -16z m257 12 c-7 -2 -19
-2 -25 0 -7 3 -2 5 12 5 14 0 19 -2 13 -5z m143 -2 c-3 -5 -15 -7 -26 -4 -28
7 -25 13 6 13 14 0 23 -4 20 -9z m364 -2 c0 -5 -4 -7 -10 -4 -6 4 -8 -6 -5
-25 3 -16 7 -43 10 -60 2 -16 0 -32 -5 -35 -6 -3 -10 -14 -9 -23 0 -14 2 -13
9 3 8 19 9 19 9 -2 1 -12 -4 -23 -10 -25 -7 -2 -7 -17 0 -48 6 -25 10 -58 10
-75 -1 -30 -1 -30 -10 -5 -8 23 -8 22 -6 -7 3 -22 0 -30 -7 -24 -10 9 -45 16
-56 11 -3 -1 -15 -3 -28 -6 -53 -10 -121 -62 -107 -83 3 -6 1 -11 -6 -11 -7 0
-10 -3 -6 -6 3 -3 19 3 34 14 16 11 44 27 63 36 33 15 33 16 6 10 -17 -3 -43
-15 -59 -26 -19 -13 -28 -16 -25 -8 5 17 63 48 107 56 25 5 32 4 27 -4 -4 -7
-5 -12 -2 -12 2 0 13 -3 23 -6 15 -5 15 -4 3 5 -24 17 -4 23 27 8 56 -29 103
-115 103 -187 0 -53 -15 -95 -30 -85 -5 3 -2 18 6 33 20 38 17 91 -6 130 -23
37 -30 40 -30 11 0 -11 3 -18 8 -16 8 5 7 -112 -1 -120 -3 -2 -12 -5 -20 -7
-8 -1 -22 -8 -31 -15 -23 -19 -83 -7 -131 27 -47 33 -64 78 -47 126 10 26 9
28 -2 14 -7 -10 -16 -15 -19 -11 -4 3 -7 -19 -7 -51 0 -36 4 -55 10 -51 6 3
10 2 10 -4 0 -5 6 -16 13 -23 35 -37 40 -51 9 -25 -19 15 -38 25 -42 22 -34
-21 -37 133 -5 196 l18 34 -23 -20 c-13 -11 -29 -35 -37 -52 -7 -18 -15 -33
-18 -33 -3 0 -5 25 -5 56 0 41 3 53 13 48 7 -4 8 -3 4 2 -5 5 -16 9 -25 9 -23
0 -27 54 -13 159 10 73 15 84 47 116 26 25 33 29 25 13 -13 -26 0 -31 19 -8 7
8 20 15 29 15 9 0 25 7 35 15 10 8 23 12 27 9 5 -3 6 2 3 10 -4 11 3 14 30 13
32 -1 35 -4 30 -21 -6 -18 -5 -19 8 -9 19 16 28 7 28 -26 0 -14 5 -33 10 -41
9 -13 10 -13 9 0 0 8 -4 34 -8 57 -5 23 -6 45 -3 48 9 9 32 5 32 -6z m-1373
-21 c-3 -8 -6 -5 -6 6 -1 11 2 17 5 13 3 -3 4 -12 1 -19z m780 16 c-3 -3 -12
-4 -19 -1 -8 3 -5 6 6 6 11 1 17 -2 13 -5z m49 -9 c18 -15 18 -15 -5 -13 -14
2 -26 9 -29 16 -5 17 10 15 34 -3z m215 -20 c-1 -15 -24 -12 -29 3 -3 9 2 13
12 10 10 -1 17 -7 17 -13z m-14 -47 c-3 -8 -6 -5 -6 6 -1 11 2 17 5 13 3 -3 4
-12 1 -19z m-827 -37 c0 -6 -4 -13 -10 -16 -5 -3 -10 1 -10 9 0 9 5 16 10 16
6 0 10 -4 10 -9z m1177 -103 c-3 -7 -5 -2 -5 12 0 14 2 19 5 13 2 -7 2 -19 0
-25z m25 2 c3 -19 0 -30 -7 -30 -7 0 -10 11 -7 30 2 17 5 30 7 30 2 0 5 -13 7
-30z m-15 -97 c-3 -10 -5 -2 -5 17 0 19 2 27 5 18 2 -10 2 -26 0 -35z m-655
-5 c-8 -8 -9 -4 -5 13 4 13 8 18 11 10 2 -7 -1 -18 -6 -23z m-18 -52 c-3 -14
-10 -26 -15 -26 -11 0 -11 3 1 36 13 33 23 26 14 -10z m720 -25 c30 -51 14
-44 -28 11 -30 41 -33 49 -15 36 13 -8 32 -30 43 -47z m-768 -67 c16 -39 18
-52 5 -38 -15 15 -41 85 -30 78 6 -3 17 -21 25 -40z m751 -61 c-3 -10 -5 -2
-5 17 0 19 2 27 5 18 2 -10 2 -26 0 -35z m-754 -63 c-3 -10 -12 -25 -21 -32
-13 -11 -12 -8 2 20 19 36 27 41 19 12z m635 -51 c15 0 21 -3 14 -6 -6 -2 -9
-10 -5 -15 8 -14 -90 -4 -115 12 -15 10 -15 10 3 6 11 -3 38 -8 60 -11 l40 -6
-30 16 c-16 8 -22 13 -12 10 10 -3 31 -5 45 -6z m65 -26 c-7 -2 -21 -2 -30 0
-10 3 -4 5 12 5 17 0 24 -2 18 -5z m-723 -7 c0 -3 -15 -14 -32 -26 l-33 -22
30 26 c31 27 35 29 35 22z m575 -12 c17 -9 50 -16 75 -16 l45 1 -50 -17 -50
-17 45 -6 c25 -3 51 -4 59 -1 9 4 12 -1 7 -15 -6 -19 1 -25 58 -52 5 -2 7 6 3
18 -3 11 -1 23 3 26 10 6 17 -25 24 -110 4 -40 3 -53 -3 -40 -5 11 -10 37 -10
58 -1 20 -6 37 -12 37 -8 0 -9 -12 -5 -37 4 -21 9 -60 12 -88 4 -27 12 -69 20
-93 17 -51 17 -52 4 -52 -5 0 -10 15 -10 33 l0 32 -13 -25 c-8 -15 -9 -28 -4
-31 5 -4 -7 -8 -27 -11 -37 -4 -60 16 -27 25 10 2 21 15 24 28 l6 24 -20 -24
c-23 -27 -25 -14 -5 34 13 30 13 35 -1 47 -14 11 -15 10 -9 -8 3 -12 1 -34 -5
-50 -10 -27 -12 -28 -20 -9 -7 15 -7 11 -3 -12 5 -31 4 -33 -25 -33 -17 0 -31
5 -31 10 0 16 -22 12 -36 -7 -12 -16 -13 -16 -14 -1 0 9 6 19 13 22 7 3 -2 16
-25 36 -21 18 -38 39 -38 47 0 8 4 12 9 9 5 -4 7 3 4 15 -8 28 -23 5 -23 -34
0 -41 -19 -23 -26 24 -4 24 -10 36 -14 29 -4 -7 -9 8 -12 35 -2 26 0 49 4 51
5 3 8 14 8 25 0 21 16 26 23 7 4 -9 6 -8 6 2 1 23 155 15 200 -11 18 -11 36
-18 38 -15 3 3 -11 13 -31 22 -20 10 -36 21 -36 26 0 5 -11 6 -25 2 -14 -3
-50 -3 -80 1 -65 8 -75 30 -18 41 31 6 34 8 18 15 -11 4 -34 8 -52 8 -32 1
-51 15 -34 25 5 4 12 2 16 -4 3 -5 21 -10 38 -9 l32 1 -35 13 c-24 9 -28 14
-15 14 11 1 34 -6 50 -15z m195 -34 c0 -16 -2 -30 -4 -30 -2 0 -6 14 -8 30 -3
17 -1 30 4 30 4 0 8 -13 8 -30z m-930 -71 c44 -2 47 -3 17 -6 -41 -5 -41 -23
0 -23 25 0 25 -1 19 -47 -8 -57 -27 -115 -45 -136 -7 -9 -10 -20 -8 -24 3 -5
2 -27 -3 -50 -5 -28 -3 -46 4 -52 8 -7 11 1 10 26 -1 32 12 84 27 108 8 13 23
77 21 88 -1 4 3 7 8 7 6 0 10 15 10 34 0 19 5 38 12 42 13 8 9 -20 -18 -126
-17 -70 -19 -96 -10 -150 l5 -35 -19 24 c-19 22 -20 22 -20 3 0 -11 7 -28 16
-36 8 -9 13 -24 11 -34 -4 -14 -6 -13 -12 6 -4 13 -13 21 -20 18 -20 -7 -48
30 -42 54 4 17 3 19 -8 10 -10 -8 -19 -8 -34 -1 -29 16 -38 13 -15 -4 12 -9
14 -14 6 -15 -7 0 -10 -5 -7 -11 5 -7 -11 -10 -47 -9 -29 1 -64 -2 -77 -6 -23
-7 -24 -6 -18 32 4 21 7 55 8 74 0 19 3 29 6 23 11 -29 20 -10 13 28 -8 44 1
154 15 166 4 5 5 -19 3 -52 l-5 -60 13 50 c8 28 18 62 23 78 6 16 6 27 0 27
-5 0 -9 5 -9 11 0 5 5 7 12 3 7 -5 9 -2 6 8 -5 11 9 7 45 -13 37 -20 68 -29
107 -30z m1035 -212 c16 -53 10 -107 -11 -107 -8 0 -14 8 -14 18 0 10 -4 22
-10 28 -6 6 -11 79 -13 164 l-3 155 19 -105 c10 -58 24 -126 32 -153z m-68 31
c-3 -7 -5 -2 -5 12 0 14 2 19 5 13 2 -7 2 -19 0 -25z m-750 -110 c-3 -7 -5 -2
-5 12 0 14 2 19 5 13 2 -7 2 -19 0 -25z m598 -7 c3 -5 1 -12 -5 -16 -5 -3 -10
1 -10 9 0 18 6 21 15 7z m35 -11 c0 -5 -5 -10 -11 -10 -5 0 -7 5 -4 10 3 6 8
10 11 10 2 0 4 -4 4 -10z m600 6 c0 -2 -12 -12 -27 -21 l-28 -18 19 21 c17 20
36 29 36 18z m-1505 -26 c3 -5 2 -10 -4 -10 -5 0 -13 5 -16 10 -3 6 -2 10 4
10 5 0 13 -4 16 -10z m-3 -30 c21 -6 40 -16 44 -22 12 -19 17 -91 6 -84 -5 3
-9 -11 -8 -35 1 -35 2 -38 13 -22 7 9 13 12 13 6 0 -6 -7 -16 -15 -23 -8 -7
-15 -9 -15 -5 0 4 -7 2 -15 -5 -13 -11 -15 -10 -10 1 8 21 -11 43 -30 35 -13
-5 -15 -9 -6 -20 9 -10 8 -16 -4 -26 -11 -9 -40 -11 -111 -6 -120 9 -139 16
-142 51 -2 30 15 58 29 49 5 -3 6 2 3 11 -8 21 14 45 42 45 12 0 30 10 38 21
22 33 104 46 168 29z m840 -12 c-7 -7 -12 -8 -12 -2 0 14 12 26 19 19 2 -3 -1
-11 -7 -17z m-695 -36 c-34 -36 -35 -47 -1 -25 21 13 30 14 45 5 23 -15 32
-15 24 -2 -3 6 -1 10 4 10 6 0 11 -3 12 -7 0 -5 2 -16 4 -26 2 -10 -6 -22 -18
-29 -12 -6 -25 -16 -29 -22 -5 -7 -8 -5 -8 6 0 18 -26 48 -41 48 -5 0 -9 -4
-9 -10 0 -5 6 -10 14 -10 21 0 29 -17 12 -23 -8 -3 -21 5 -30 19 -20 30 -11
72 18 84 32 13 32 12 3 -18z m98 0 c-3 -3 -11 0 -18 7 -9 10 -8 11 6 5 10 -3
15 -9 12 -12z m-168 -39 c-3 -10 -5 -4 -5 12 0 17 2 24 5 18 2 -7 2 -21 0 -30z
m-337 3 c0 -3 -4 -8 -10 -11 -5 -3 -10 -1 -10 4 0 6 5 11 10 11 6 0 10 -2 10
-4z m500 -46 c0 -5 -8 -10 -17 -10 -15 0 -16 2 -3 10 19 12 20 12 20 0z m68
-57 c-10 -2 -26 -2 -35 0 -10 3 -2 5 17 5 19 0 27 -2 18 -5z m49 1 c-3 -3 -12
-4 -19 -1 -8 3 -5 6 6 6 11 1 17 -2 13 -5z m1019 -32 c-8 -14 -186 -57 -276
-67 -84 -10 -56 1 50 19 52 9 122 25 155 35 71 23 78 24 71 13z m-1665 -66
c186 -38 597 -54 964 -36 138 6 267 14 288 17 20 3 37 1 37 -4 0 -5 -10 -9
-22 -8 -13 0 -81 -6 -153 -14 -88 -10 -122 -17 -105 -22 l25 -7 -32 -13 c-18
-7 -33 -17 -33 -21 0 -4 -8 -8 -19 -8 -20 0 -41 -20 -45 -43 -1 -8 -7 -22 -14
-30 -10 -11 -7 -18 13 -33 l26 -19 -33 -7 c-18 -3 12 -4 67 -1 55 3 97 2 93
-2 -6 -6 -50 -11 -333 -35 -83 -7 -67 -8 95 -5 182 3 187 3 80 -6 -117 -10
-576 -3 -594 9 -6 3 -60 9 -121 13 -192 12 -348 58 -376 111 -13 24 -6 193 9
211 10 12 19 11 60 -9 26 -12 81 -29 123 -38z m1196 28 c-3 -3 -12 -4 -19 -1
-8 3 -5 6 6 6 11 1 17 -2 13 -5z m-20 -300 c-3 -3 -12 -4 -19 -1 -8 3 -5 6 6
6 11 1 17 -2 13 -5z"/>
<path d="M2196 3205 c-9 -26 -7 -32 5 -12 6 10 9 21 6 23 -2 3 -7 -2 -11 -11z"/>
<path d="M2086 3080 c-42 -38 -72 -70 -68 -70 9 0 159 139 150 140 -4 0 -41
-31 -82 -70z"/>
<path d="M1819 2913 c-13 -16 -12 -17 4 -4 9 7 17 15 17 17 0 8 -8 3 -21 -13z"/>
<path d="M1769 2833 c-13 -16 -12 -17 4 -4 9 7 17 15 17 17 0 8 -8 3 -21 -13z"/>
<path d="M1626 2765 c-11 -8 -15 -15 -9 -15 6 0 16 7 23 15 16 19 11 19 -14 0z"/>
<path d="M1440 2578 c0 -3 6 -11 14 -17 10 -9 17 -7 27 6 12 16 12 17 -2 6
-12 -10 -18 -10 -27 -1 -7 7 -12 9 -12 6z"/>
<path d="M1345 2560 c-3 -6 1 -7 9 -4 18 7 21 14 7 14 -6 0 -13 -4 -16 -10z"/>
<path d="M1289 2513 c-13 -16 -12 -17 4 -4 9 7 17 15 17 17 0 8 -8 3 -21 -13z"/>
<path d="M1230 2469 c-17 -13 -18 -17 -5 -10 33 17 51 31 40 31 -5 0 -21 -10
-35 -21z"/>
<path d="M777 2216 c-10 -8 -15 -16 -10 -19 4 -2 17 4 27 14 22 22 10 25 -17
5z"/>
<path d="M908 2973 c7 -3 16 -2 19 1 4 3 -2 6 -13 5 -11 0 -14 -3 -6 -6z"/>
<path d="M1141 2684 c0 -11 3 -14 6 -6 3 7 2 16 -1 19 -3 4 -6 -2 -5 -13z"/>
<path d="M926 2602 c-4 -10 -24 -29 -46 -43 -22 -13 -40 -28 -40 -32 0 -5 6
-5 13 0 6 4 23 8 37 9 47 3 51 4 45 14 -3 5 -13 6 -23 3 -13 -4 -11 0 6 16 12
12 22 28 22 36 0 20 -7 19 -14 -3z"/>
<path d="M370 2669 c0 -11 5 -17 10 -14 6 3 10 13 10 21 0 8 -4 14 -10 14 -5
0 -10 -9 -10 -21z"/>
<path d="M250 2656 c0 -8 -6 -16 -12 -19 -7 -2 -10 -7 -7 -11 3 -3 16 2 28 13
18 15 19 20 6 25 -9 3 -15 0 -15 -8z"/>
<path d="M287 2599 c-62 -10 -53 -18 15 -12 35 3 64 7 66 8 8 7 -48 10 -81 4z"/>
<path d="M335 2523 c-16 -2 -40 -6 -52 -8 -25 -6 -83 -52 -83 -67 0 -5 13 4
30 20 30 31 118 55 164 45 17 -4 18 -3 6 6 -8 6 -19 10 -25 9 -5 0 -23 -3 -40
-5z"/>
<path d="M490 2495 c7 -8 17 -15 22 -15 6 0 5 7 -2 15 -7 8 -17 15 -22 15 -6
0 -5 -7 2 -15z"/>
<path d="M224 2418 l-19 -23 23 19 c21 18 27 26 19 26 -2 0 -12 -10 -23 -22z"/>
<path d="M1868 2555 c2 -14 9 -25 14 -25 6 0 7 7 4 16 -3 9 -6 20 -6 25 0 5
-4 9 -9 9 -4 0 -6 -11 -3 -25z"/>
<path d="M1450 2365 c-13 -14 -22 -27 -19 -29 2 -2 14 10 27 25 29 36 24 38
-8 4z"/>
<path d="M514 2405 c11 -8 24 -15 30 -15 5 0 1 7 -10 15 -10 8 -23 14 -29 14
-5 0 -1 -6 9 -14z"/>
<path d="M240 2309 c0 -5 5 -7 10 -4 6 3 10 8 10 11 0 2 -4 4 -10 4 -5 0 -10
-5 -10 -11z"/>
<path d="M226 2265 c-3 -9 -6 -24 -5 -33 0 -9 5 -4 10 12 9 32 6 48 -5 21z"/>
<path d="M281 2174 c0 -11 3 -14 6 -6 3 7 2 16 -1 19 -3 4 -6 -2 -5 -13z"/>
<path d="M650 2130 c0 -5 5 -10 11 -10 5 0 7 5 4 10 -3 6 -8 10 -11 10 -2 0
-4 -4 -4 -10z"/>
<path d="M562 2103 c-7 -11 -5 -21 4 -31 8 -7 12 -19 8 -25 -3 -7 1 -4 8 5 13
15 15 15 26 0 7 -9 10 -11 7 -4 -3 6 -1 12 4 12 6 0 11 -13 11 -30 0 -16 5
-30 10 -30 6 0 10 5 10 10 0 6 6 10 14 10 9 0 12 7 9 20 -3 11 -11 20 -18 20
-6 0 -20 9 -31 21 -11 12 -26 18 -37 15 -13 -3 -17 0 -13 10 7 19 -1 18 -12
-3z"/>
<path d="M351 2038 c0 -9 -4 -25 -7 -35 -5 -17 -5 -17 6 0 6 10 9 25 7 35 -4
15 -5 15 -6 0z"/>
<path d="M686 2035 c4 -8 10 -15 15 -15 4 0 6 7 3 15 -4 8 -10 15 -15 15 -4 0
-6 -7 -3 -15z"/>
<path d="M357 1677 c-3 -8 -8 -36 -11 -63 -5 -47 -5 -46 8 11 14 57 15 82 3
52z"/>
<path d="M331 1544 c0 -11 3 -14 6 -6 3 7 2 16 -1 19 -3 4 -6 -2 -5 -13z"/>
<path d="M311 1444 c0 -11 3 -14 6 -6 3 7 2 16 -1 19 -3 4 -6 -2 -5 -13z"/>
<path d="M302 1395 c0 -16 2 -22 5 -12 2 9 2 23 0 30 -3 6 -5 -1 -5 -18z"/>
<path d="M322 1360 c0 -14 2 -19 5 -12 2 6 2 18 0 25 -3 6 -5 1 -5 -13z"/>
<path d="M280 1293 c-7 -32 -15 -65 -17 -73 -4 -13 -3 -13 5 0 12 19 36 120
30 126 -3 2 -11 -22 -18 -53z"/>
<path d="M302 1260 c0 -14 2 -19 5 -12 2 6 2 18 0 25 -3 6 -5 1 -5 -13z"/>
<path d="M282 1150 c0 -14 2 -19 5 -12 2 6 2 18 0 25 -3 6 -5 1 -5 -13z"/>
<path d="M1911 1454 c0 -11 3 -14 6 -6 3 7 2 16 -1 19 -3 4 -6 -2 -5 -13z"/>
<path d="M1932 1385 c0 -11 4 -31 8 -45 6 -20 8 -21 8 -5 0 11 -4 31 -8 45 -6
20 -8 21 -8 5z"/>
<path d="M1952 1290 c0 -32 25 -132 26 -105 1 11 -5 45 -13 75 -7 30 -13 44
-13 30z"/>
<path d="M1485 1970 c-11 -5 -34 -9 -51 -9 -17 -1 -38 -9 -45 -18 -13 -15 -12
-16 11 -9 14 5 45 10 70 12 25 2 52 6 60 9 13 5 13 7 0 15 -18 11 -19 11 -45
0z"/>
<path d="M1285 1940 c-3 -5 -1 -10 5 -10 7 0 10 -7 6 -15 -3 -8 -1 -15 3 -15
9 0 21 24 21 41 0 12 -27 12 -35 -1z"/>
<path d="M755 1770 c3 -5 11 -10 16 -10 6 0 7 5 4 10 -3 6 -11 10 -16 10 -6 0
-7 -4 -4 -10z"/>
<path d="M876 1656 c-3 -13 -9 -32 -13 -43 -11 -32 6 -8 22 30 8 20 11 37 6
37 -5 0 -12 -11 -15 -24z"/>
<path d="M1398 1693 c7 -3 16 -2 19 1 4 3 -2 6 -13 5 -11 0 -14 -3 -6 -6z"/>
<path d="M1311 1666 c-13 -14 -22 -29 -20 -34 2 -5 14 6 26 24 26 40 25 43 -6
10z"/>
<path d="M1552 1640 c0 -14 2 -19 5 -12 2 6 2 18 0 25 -3 6 -5 1 -5 -13z"/>
<path d="M1281 1594 c0 -11 3 -14 6 -6 3 7 2 16 -1 19 -3 4 -6 -2 -5 -13z"/>
<path d="M1376 1465 c-11 -8 -15 -15 -9 -15 6 0 16 7 23 15 16 19 11 19 -14 0z"/>
<path d="M1591 1328 c1 -72 5 -68 12 10 2 28 0 52 -4 52 -5 0 -9 -28 -8 -62z"/>
<path d="M1442 1270 c0 -14 2 -19 5 -12 2 6 2 18 0 25 -3 6 -5 1 -5 -13z"/>
<path d="M1510 1248 c0 -4 17 -9 38 -11 l37 -4 -37 -1 c-42 -2 -47 -8 -20 -28
23 -18 37 -18 23 0 -10 12 -7 15 21 18 21 2 34 9 36 20 3 14 -5 16 -47 15 -28
-1 -51 -5 -51 -9z"/>
<path d="M1602 920 c0 -19 2 -27 5 -17 2 9 2 25 0 35 -3 9 -5 1 -5 -18z"/>
<path d="M1371 904 c0 -11 3 -14 6 -6 3 7 2 16 -1 19 -3 4 -6 -2 -5 -13z"/>
<path d="M1598 861 c3 -9 11 -25 18 -35 12 -17 13 -17 10 10 -2 16 -4 32 -5
35 0 3 -7 6 -15 6 -9 0 -12 -7 -8 -16z"/>
<path d="M1475 810 c-3 -5 -1 -10 4 -10 6 0 11 5 11 10 0 6 -2 10 -4 10 -3 0
-8 -4 -11 -10z"/>
<path d="M486 750 c-2 -8 -7 -28 -11 -45 l-7 -30 24 23 c15 13 38 22 59 23
l34 1 -40 9 c-21 5 -42 15 -47 21 -5 9 -8 8 -12 -2z"/>
<path d="M548 683 c6 -2 18 -2 25 0 6 3 1 5 -13 5 -14 0 -19 -2 -12 -5z"/>
<path d="M651 620 c0 -8 4 -22 9 -30 12 -18 12 -2 0 25 -6 13 -9 15 -9 5z"/>
<path d="M631 574 c0 -11 3 -14 6 -6 3 7 2 16 -1 19 -3 4 -6 -2 -5 -13z"/>
<path d="M551 533 c-14 -50 -8 -52 12 -3 8 22 11 40 7 40 -5 0 -14 -17 -19
-37z"/>
<path d="M626 527 c3 -10 9 -15 12 -12 3 3 0 11 -7 18 -10 9 -11 8 -5 -6z"/>
<path d="M580 494 c0 -8 -4 -13 -9 -10 -5 3 -11 0 -14 -8 -4 -10 0 -12 14 -9
16 5 29 43 14 43 -3 0 -5 -7 -5 -16z"/>
<path d="M180 266 c0 -36 5 -68 10 -71 6 -4 10 18 10 59 0 36 -4 68 -10 71 -6
4 -10 -18 -10 -59z"/>
<path d="M1178 303 c6 -2 18 -2 25 0 6 3 1 5 -13 5 -14 0 -19 -2 -12 -5z"/>
<path d="M475 254 c-4 -22 -2 -41 4 -47 8 -8 11 3 11 36 0 56 -5 60 -15 11z"/>
<path d="M926 216 c-9 -77 1 -116 29 -116 20 0 23 6 28 67 5 54 3 70 -10 85
-28 31 -40 21 -47 -36z"/>
<path d="M980 4158 c0 -7 -3 -24 -6 -38 -5 -17 -3 -22 3 -15 15 15 25 65 13
65 -5 0 -10 -6 -10 -12z"/>
<path d="M900 3929 c0 -5 5 -7 10 -4 6 3 10 8 10 11 0 2 -4 4 -10 4 -5 0 -10
-5 -10 -11z"/>
<path d="M900 3879 c0 -5 9 -9 20 -9 11 0 20 2 20 4 0 2 -9 6 -20 9 -11 3 -20
1 -20 -4z"/>
<path d="M870 3826 c0 -2 7 -6 15 -10 8 -3 15 -1 15 4 0 6 -7 10 -15 10 -8 0
-15 -2 -15 -4z"/>
<path d="M1070 3766 c0 -2 9 -6 20 -9 11 -3 18 -1 14 4 -5 9 -34 13 -34 5z"/>
<path d="M1044 3712 c4 -6 -50 -27 -94 -36 -29 -6 -43 -77 -18 -92 8 -5 9 -2
5 9 -4 11 -1 17 9 17 20 0 29 -27 14 -45 -10 -12 -9 -16 4 -21 11 -4 15 -13
11 -25 -7 -22 -4 -22 74 -19 59 2 81 12 100 42 11 18 10 19 -16 17 -15 -2 -34
0 -41 4 -6 5 -12 4 -12 -2 0 -6 -7 -11 -16 -11 -9 0 -14 -6 -11 -12 2 -7 13
-13 25 -12 12 0 19 -3 16 -8 -7 -11 -52 -10 -59 2 -3 6 -16 11 -28 11 -17 1
-15 3 8 9 30 8 18 14 -20 11 -18 -2 -20 3 -17 39 3 26 9 40 18 40 8 0 14 5 14
11 0 6 13 8 30 5 17 -2 30 0 30 5 0 5 10 5 23 0 12 -4 27 -6 34 -4 6 2 15 -1
19 -8 4 -7 3 -9 -3 -6 -6 4 -14 -1 -17 -10 -4 -10 -4 -14 0 -10 4 4 13 2 20
-4 9 -7 16 -2 28 22 9 18 16 36 16 41 0 13 -88 48 -121 48 -17 0 -28 -4 -25
-8z m129 -39 c3 -5 -6 -9 -20 -10 -19 -1 -22 1 -12 8 17 11 26 11 32 2z m-197
-39 c-14 -13 -20 -14 -29 -4 -8 9 -8 11 -1 7 7 -4 17 0 24 8 7 9 15 13 18 11
2 -3 -3 -13 -12 -22z m29 -124 c3 -5 1 -10 -4 -10 -6 0 -11 5 -11 10 0 6 2 10
4 10 3 0 8 -4 11 -10z"/>
<path d="M1246 3624 c-5 -14 -4 -15 9 -4 17 14 19 20 6 20 -5 0 -12 -7 -15
-16z"/>
<path d="M1125 3589 c-9 -14 -2 -20 14 -10 8 6 9 11 3 15 -6 3 -14 1 -17 -5z"/>
<path d="M901 3545 c1 -22 16 -48 22 -38 3 5 0 19 -8 29 -8 10 -14 15 -14 9z"/>
<path d="M820 3526 c0 -2 8 -10 18 -17 15 -13 16 -12 3 4 -13 16 -21 21 -21
13z"/>
<path d="M998 3468 c5 -5 29 -12 53 -15 29 -4 41 -2 34 4 -5 6 -30 13 -54 16
-29 4 -40 2 -33 -5z"/>
<path d="M1149 3463 c-13 -15 -12 -15 9 -4 23 12 28 21 13 21 -5 0 -15 -7 -22
-17z"/>
<path d="M740 3439 c0 -5 -4 -7 -10 -4 -5 3 -10 1 -10 -4 0 -16 16 -13 30 4 9
10 9 15 1 15 -6 0 -11 -5 -11 -11z"/>
<path d="M1055 3380 c-19 -8 -19 -9 2 -9 12 -1 25 4 28 9 7 12 -2 12 -30 0z"/>
<path d="M965 3350 c16 -16 31 -28 33 -25 7 7 -39 55 -52 55 -5 0 3 -13 19
-30z"/>
<path d="M1085 3360 c-3 -5 1 -10 9 -10 9 0 16 5 16 10 0 6 -4 10 -9 10 -6 0
-13 -4 -16 -10z"/>
<path d="M1040 3339 c0 -5 5 -7 10 -4 6 3 10 8 10 11 0 2 -4 4 -10 4 -5 0 -10
-5 -10 -11z"/>
<path d="M1565 3330 c-4 -6 -17 -15 -29 -20 -16 -7 -17 -9 -4 -9 9 -1 23 6 32
14 8 8 23 15 33 14 16 0 16 -1 -1 -8 -20 -8 -20 -8 0 -14 10 -4 30 -14 43 -21
24 -14 51 -12 51 5 0 26 -111 61 -125 39z m91 -25 c15 -11 16 -14 3 -15 -8 0
-24 7 -35 15 -15 11 -16 14 -3 15 8 0 24 -7 35 -15z"/>
<path d="M865 3250 c10 -11 20 -20 23 -20 3 0 -3 9 -13 20 -10 11 -20 20 -23
20 -3 0 3 -9 13 -20z"/>
<path d="M935 3234 c24 -23 31 -26 36 -14 9 19 1 27 -36 36 l-30 7 30 -29z"/>
<path d="M1111 3244 c0 -11 3 -14 6 -6 3 7 2 16 -1 19 -3 4 -6 -2 -5 -13z"/>
<path d="M1038 3193 c6 -2 18 -2 25 0 6 3 1 5 -13 5 -14 0 -19 -2 -12 -5z"/>
<path d="M1799 3088 c4 -28 6 -29 9 -9 2 13 0 27 -5 32 -6 6 -7 -3 -4 -23z"/>
<path d="M1422 3075 c0 -16 2 -22 5 -12 2 9 2 23 0 30 -3 6 -5 -1 -5 -18z"/>
<path d="M600 3072 c6 -13 14 -21 18 -18 3 4 -2 14 -12 24 -18 16 -18 16 -6
-6z"/>
<path d="M465 3009 c3 -4 -1 -9 -7 -12 -7 -3 10 -4 37 -4 28 1 59 -3 70 -8 17
-8 18 -7 7 7 -11 14 -10 17 5 20 10 3 -12 5 -49 5 -37 0 -65 -3 -63 -8z"/>
<path d="M600 3010 c0 -5 5 -10 10 -10 6 0 10 5 10 10 0 6 -4 10 -10 10 -5 0
-10 -4 -10 -10z"/>
<path d="M1553 634 c-18 -14 -33 -31 -33 -37 0 -7 7 -4 14 5 22 30 83 50 134
43 33 -4 41 -2 27 4 -41 19 -108 12 -142 -15z"/>
<path d="M1662 603 c9 -10 18 -25 21 -33 4 -10 6 -11 6 -2 1 20 -18 52 -31 52
-7 0 -5 -7 4 -17z"/>
<path d="M1730 569 c0 -11 5 -17 10 -14 6 3 10 13 10 21 0 8 -4 14 -10 14 -5
0 -10 -9 -10 -21z"/>
<path d="M1512 526 c4 -52 3 -54 -18 -50 -13 2 -26 0 -29 -6 -4 -6 15 -10 52
-9 32 1 50 3 41 6 -12 3 -18 14 -18 31 0 21 -2 24 -10 12 -8 -13 -10 -12 -10
3 0 9 5 17 11 17 8 0 8 4 -1 15 -6 8 -9 19 -5 25 3 5 1 10 -6 10 -8 0 -10 -17
-7 -54z"/>
<path d="M1442 538 c-14 -14 -16 -48 -3 -48 5 0 11 14 13 30 3 17 4 30 3 30 0
0 -6 -5 -13 -12z"/>
<path d="M260 530 c0 -6 6 -10 13 -7 6 2 20 0 31 -5 12 -7 22 -6 29 1 8 8 6
11 -8 11 -11 0 -30 3 -42 6 -15 4 -23 2 -23 -6z"/>
<path d="M265 500 c3 -5 8 -10 11 -10 2 0 4 5 4 10 0 6 -5 10 -11 10 -5 0 -7
-4 -4 -10z"/>
<path d="M1156 449 c-32 -5 -62 -12 -65 -15 -3 -4 9 -4 28 0 18 3 63 6 99 6
36 0 63 2 61 4 -11 9 -70 12 -123 5z"/>
<path d="M1148 413 c7 -3 16 -2 19 1 4 3 -2 6 -13 5 -11 0 -14 -3 -6 -6z"/>
</g>
</svg>
